<svg xmlns="http://www.w3.org/2000/svg" xmlns:xlink="http://www.w3.org/1999/xlink" width="115.253mm" height="72.708mm" viewBox="4040 3081.5 181.5 114.5"><title></title><style type="text/css">
*[layerid="1"] {stroke:#FF0000;fill:#FF0000;}
*[layerid="2"] {stroke:#0000FF;fill:#0000FF;}
*[layerid="3"] {stroke:#FFCC00;fill:#FFCC00;}
*[layerid="4"] {stroke:#66CC33;fill:#66CC33;}
*[layerid="5"] {stroke:#808080;fill:#808080;}
*[layerid="6"] {stroke:#800000;fill:#800000;}
*[layerid="7"] {stroke:#800080;fill:#800080;stroke-opacity:0.7;fill-opacity:0.7;}
*[layerid="8"] {stroke:#AA00FF;fill:#AA00FF;stroke-opacity:0.7;fill-opacity:0.7;}
*[layerid="9"] {stroke:#6464FF;fill:#6464FF;}
*[layerid="10"] {stroke:#FF00FF;fill:#FF00FF;}
*[layerid="11"] {stroke:#C0C0C0;fill:#C0C0C0;}
*[layerid="12"] {stroke:#FFFFFF;fill:#FFFFFF;}
*[layerid="13"] {stroke:#33CC99;fill:#33CC99;}
*[layerid="14"] {stroke:#5555FF;fill:#5555FF;}
*[layerid="15"] {stroke:#F022F0;fill:#F022F0;}
*[layerid="19"] {stroke:#66CCFF;fill:#66CCFF;}
*[layerid="21"] {stroke:#999966;fill:#999966;}
*[layerid="22"] {stroke:#008000;fill:#008000;}
*[layerid="23"] {stroke:#00FF00;fill:#00FF00;}
*[layerid="24"] {stroke:#BC8E00;fill:#BC8E00;}
*[layerid="25"] {stroke:#70DBFA;fill:#70DBFA;}
*[layerid="26"] {stroke:#00CC66;fill:#00CC66;}
*[layerid="27"] {stroke:#9966FF;fill:#9966FF;}
*[layerid="28"] {stroke:#800080;fill:#800080;}
*[layerid="29"] {stroke:#008080;fill:#008080;}
*[layerid="30"] {stroke:#15935F;fill:#15935F;}
*[layerid="31"] {stroke:#000080;fill:#000080;}
*[layerid="32"] {stroke:#00B400;fill:#00B400;}
*[layerid="33"] {stroke:#2E4756;fill:#2E4756;}
*[layerid="34"] {stroke:#99842F;fill:#99842F;}
*[layerid="35"] {stroke:#FFFFAA;fill:#FFFFAA;}
*[layerid="36"] {stroke:#99842F;fill:#99842F;}
*[layerid="37"] {stroke:#2E4756;fill:#2E4756;}
*[layerid="38"] {stroke:#3535FF;fill:#3535FF;}
*[layerid="39"] {stroke:#8000BC;fill:#8000BC;}
*[layerid="40"] {stroke:#43AE5F;fill:#43AE5F;}
*[layerid="41"] {stroke:#C3ECCE;fill:#C3ECCE;}
*[layerid="42"] {stroke:#728978;fill:#728978;}
*[layerid="43"] {stroke:#39503F;fill:#39503F;}
*[layerid="44"] {stroke:#0C715D;fill:#0C715D;}
*[layerid="45"] {stroke:#5A8A80;fill:#5A8A80;}
*[layerid="46"] {stroke:#2B937E;fill:#2B937E;}
*[layerid="47"] {stroke:#23999D;fill:#23999D;}
*[layerid="48"] {stroke:#45B4E3;fill:#45B4E3;}
*[layerid="49"] {stroke:#215DA1;fill:#215DA1;}
*[layerid="50"] {stroke:#4564D7;fill:#4564D7;}
*[layerid="51"] {stroke:#6969E9;fill:#6969E9;}
*[layerid="52"] {stroke:#9069E9;fill:#9069E9;}
*[layerid="99"] {stroke:#00CCCC;fill:#00CCCC;}
*[layerid="100"] {stroke:#CC9999;fill:#CC9999;}
*[layerid="Hole"] {stroke:#222222;fill:#222222;}
*[layerid="DRCError"] {stroke:#FAD609;fill:#FAD609;}
*[fill="none"] {fill: none;}
*[stroke="none"] {stroke: none;}
path, polyline, polygon, line {stroke-linecap:round;}
g[c_partid="part_pad"][layerid="1"] ellipse:not([c_etype="pad_outer"]) {fill:#FF0000;}
g[c_partid="part_pad"][layerid="1"] polygon:not([c_etype="pad_outer"]) {fill:#FF0000;}
g[c_partid="part_pad"][layerid="1"] polyline:not([c_etype="pad_outer"]) {stroke:#FF0000;}
g[c_partid="part_pad"][layerid="2"] ellipse:not([c_etype="pad_outer"]) {fill:#0000FF;}
g[c_partid="part_pad"][layerid="2"] polygon:not([c_etype="pad_outer"]) {fill:#0000FF;}
g[c_partid="part_pad"][layerid="2"] polyline:not([c_etype="pad_outer"]) {stroke:#0000FF;}
g[c_partid="part_pad"][layerid="11"] ellipse:not([c_etype="pad_outer"]) {fill:#C0C0C0;}
g[c_partid="part_pad"][layerid="11"] polygon:not([c_etype="pad_outer"]) {fill:#C0C0C0;}
g[c_partid="part_pad"][layerid="11"] polyline:not([c_etype="pad_outer"]) {stroke:#C0C0C0;}
g[c_partid="part_pad"][layerid="11"] circle {fill:#222222;}
g[c_partid="part_pad"][layerid="11"] > polyline:nth-of-type(2) {stroke:#222222;}
g[c_partid="part_pad"][layerid="11"][c_shape="ELLIPSE"]  polyline:nth-last-of-type(1) {stroke:#222222;}
g[c_partid="part_pad"][layerid="11"][c_shape="RECT"]  polyline:nth-last-of-type(1) {stroke:#222222;}
g[c_partid="part_pad"][layerid="11"][c_shape="POLYGON"]  polyline:nth-last-of-type(1) {stroke:#222222;}
g[c_partid="part_via"] > * + circle, #gCurParts g[c_partid="part_via"] > * + circle {fill:#222222;}
g[c_partid="part_pad"] > polygon[c_etype="pad_outer"], #gCurParts g[c_partid="part_pad"] > polygon[c_etype="pad_outer"] {stroke-linejoin: miter;stroke-miterlimit: 100;}
g[c_partid="part_hole"] > circle {fill: #222222;}path, polyline, polygon {stroke-linejoin:round;}
rect, circle, ellipse, polyline, line, polygon, path {shape-rendering:crispEdges;}
</style>
<rect x="4040" y="3081.5" width="181.5" height="114.5" fill="#000000" stroke="none"/><g transform="matrix(-1, 0, 0, 1, 8261.5, 0)"><g c_partid="part_pad" c_etype="pinpart" c_origin="4203.5,3170" layerid="11" number="1" net="RXD" plated ="Y"  id="gge463" locked="0" c_rotation="180" c_width="6.6929" c_height="6.6929" title="RXD" c_shape="ELLIPSE" pasteexpansion="0" solderexpansion="0.4"><ellipse cx="4203.5" cy="3170" rx="3.74645" ry="3.74645" layerid="8" stroke-width="0" c_etype="pad_outer"/></g><g c_partid="part_pad" c_etype="pinpart" c_origin="4203.5,3180" layerid="11" number="2" net="TXD" plated ="Y"  id="gge468" locked="0" c_rotation="180" c_width="6.6929" c_height="6.6929" title="TXD" c_shape="ELLIPSE" pasteexpansion="0" solderexpansion="0.4"><ellipse cx="4203.5" cy="3180" rx="3.74645" ry="3.74645" layerid="8" stroke-width="0" c_etype="pad_outer"/></g><g c_partid="part_pad" c_etype="pinpart" c_origin="4193.5,3170" layerid="11" number="3" net="3.3V" plated ="Y"  id="gge473" locked="0" c_rotation="180" c_width="6.6929" c_height="6.6929" title="3.3V" c_shape="ELLIPSE" pasteexpansion="0" solderexpansion="0.4"><ellipse cx="4193.5" cy="3170" rx="3.74645" ry="3.74645" layerid="8" stroke-width="0" c_etype="pad_outer"/></g><g c_partid="part_pad" c_etype="pinpart" c_origin="4193.5,3180" layerid="11" number="4" net="GND" plated ="Y"  id="gge478" locked="0" c_rotation="180" c_width="6.6929" c_height="6.6929" title="GND" c_shape="ELLIPSE" pasteexpansion="0" solderexpansion="0.4"><ellipse cx="4193.5" cy="3180" rx="3.74645" ry="3.74645" layerid="8" stroke-width="0" c_etype="pad_outer"/></g><g c_partid="part_pad" c_etype="pinpart" c_origin="4183.5,3170" layerid="11" number="5" net="RST" plated ="Y"  id="gge483" locked="0" c_rotation="180" c_width="6.6929" c_height="6.6929" title="RST" c_shape="ELLIPSE" pasteexpansion="0" solderexpansion="0.4"><ellipse cx="4183.5" cy="3170" rx="3.74645" ry="3.74645" layerid="8" stroke-width="0" c_etype="pad_outer"/></g><g c_partid="part_pad" c_etype="pinpart" c_origin="4183.5,3180" layerid="11" number="6" net="GND" plated ="Y"  id="gge488" locked="0" c_rotation="180" c_width="6.6929" c_height="6.6929" title="GND" c_shape="ELLIPSE" pasteexpansion="0" solderexpansion="0.4"><ellipse cx="4183.5" cy="3180" rx="3.74645" ry="3.74645" layerid="8" stroke-width="0" c_etype="pad_outer"/></g><g c_partid="part_pad" c_etype="pinpart" c_origin="4173.5,3170" layerid="11" number="7" net="GPIO0" plated ="Y"  id="gge493" locked="0" c_rotation="180" c_width="6.6929" c_height="6.6929" title="GPIO0" c_shape="ELLIPSE" pasteexpansion="0" solderexpansion="0.4"><ellipse cx="4173.5" cy="3170" rx="3.74645" ry="3.74645" layerid="8" stroke-width="0" c_etype="pad_outer"/></g><g c_partid="part_pad" c_etype="pinpart" c_origin="4173.5,3180" layerid="11" number="8" net="GND" plated ="Y"  id="gge498" locked="0" c_rotation="180" c_width="6.6929" c_height="6.6929" title="GND" c_shape="ELLIPSE" pasteexpansion="0" solderexpansion="0.4"><ellipse cx="4173.5" cy="3180" rx="3.74645" ry="3.74645" layerid="8" stroke-width="0" c_etype="pad_outer"/></g><g c_partid="part_pad" c_etype="pinpart" c_origin="4110.1,3176" layerid="11" number="1" net="GND" plated ="Y"  id="gge833" locked="0" c_rotation="0" c_width="4.7244" c_height="5.9055" title="GND" c_shape="OVAL" pasteexpansion="0" solderexpansion="0.4"><path d="M4110.1 3175.4095L4110.1 3176.5906" layerid="8" stroke-width="5.5244" c_etype="pad_outer"/></g><g c_partid="part_pad" c_etype="pinpart" c_origin="4116,3176" layerid="11" number="2" net="DS18" plated ="Y"  id="gge838" locked="0" c_rotation="0" c_width="4.7244" c_height="5.9055" title="DS18" c_shape="OVAL" pasteexpansion="0" solderexpansion="0.4"><path d="M4116 3175.4095L4116 3176.5906" layerid="8" stroke-width="5.5244" c_etype="pad_outer"/></g><g c_partid="part_pad" c_etype="pinpart" c_origin="4121.9,3176" layerid="11" number="3" net="3.3V" plated ="Y"  id="gge843" locked="0" c_rotation="0" c_width="4.7244" c_height="5.9055" title="3.3V" c_shape="OVAL" pasteexpansion="0" solderexpansion="0.4"><path d="M4121.9 3175.4095L4121.9 3176.5906" layerid="8" stroke-width="5.5244" c_etype="pad_outer"/></g><g c_partid="part_pad" c_etype="pinpart" c_origin="4071.425,3171.5" layerid="11" number="1" net="VBATT" plated ="Y"  id="gge870" locked="0" c_rotation="180" c_width="7.0866" c_height="7.0866" title="VBATT" c_shape="RECT" pasteexpansion="0" solderexpansion="0.4"><polygon points="4074.9683 3175.0433 4067.8817 3175.0433 4067.8817 3167.9567 4074.9683 3167.9567" layerid="8" stroke-width="0.8" c_etype="pad_outer"/></g><g c_partid="part_pad" c_etype="pinpart" c_origin="4061.575,3171.5" layerid="11" number="2" net="GND" plated ="Y"  id="gge875" locked="0" c_rotation="180" c_width="7.0866" c_height="7.0866" title="GND" c_shape="ELLIPSE" pasteexpansion="0" solderexpansion="0.4"><ellipse cx="4061.575" cy="3171.5" rx="3.9433" ry="3.9433" layerid="8" stroke-width="0" c_etype="pad_outer"/></g><g c_partid="part_pad" c_etype="pinpart" c_origin="4137.642,3176" layerid="11" number="1" net="TXC" plated ="Y"  id="gge2538" locked="0" c_rotation="180" c_width="4.7244" c_height="5.9055" title="TXC" c_shape="OVAL" pasteexpansion="0" solderexpansion="0.4"><path d="M4137.642 3176.5906L4137.642 3175.4095" layerid="8" stroke-width="5.5244" c_etype="pad_outer"/></g><g c_partid="part_pad" c_etype="pinpart" c_origin="4143.547,3176" layerid="11" number="2" net="RXC" plated ="Y"  id="gge2543" locked="0" c_rotation="180" c_width="4.7244" c_height="5.9055" title="RXC" c_shape="OVAL" pasteexpansion="0" solderexpansion="0.4"><path d="M4143.547 3176.5906L4143.547 3175.4095" layerid="8" stroke-width="5.5244" c_etype="pad_outer"/></g><g c_partid="part_pad" c_etype="pinpart" c_origin="4149.453,3176" layerid="11" number="3" net="TXL" plated ="Y"  id="gge2548" locked="0" c_rotation="180" c_width="4.7244" c_height="5.9055" title="TXL" c_shape="OVAL" pasteexpansion="0" solderexpansion="0.4"><path d="M4149.453 3176.5906L4149.453 3175.4095" layerid="8" stroke-width="5.5244" c_etype="pad_outer"/></g><g c_partid="part_pad" c_etype="pinpart" c_origin="4155.358,3176" layerid="11" number="4" net="RXL" plated ="Y"  id="gge2553" locked="0" c_rotation="180" c_width="4.7244" c_height="5.9055" title="RXL" c_shape="OVAL" pasteexpansion="0" solderexpansion="0.4"><path d="M4155.358 3176.5906L4155.358 3175.4095" layerid="8" stroke-width="5.5244" c_etype="pad_outer"/></g></g><g transform="matrix(-1, 0, 0, 1, 8261.5, 0)"><path d="M 4210.4075 3184.59 A 0.4 0.4 0 0 1 4210.0075 3184.99 L 4204.74728 3184.99 A 0.4 0.4 0 0 1 4204.34728 3184.59 0.4 0.4 0 0 1 4204.64239 3184.204 L 4204.64239 3184.204 A 4.35645 4.35645 0 0 0 4207.85645 3180 4.35645 4.35645 0 0 0 4203.5 3175.64355 4.35645 4.35645 0 0 0 4199.14355 3180 4.35645 4.35645 0 0 0 4202.35761 3184.204 0.4 0.4 0 0 1 4202.65272 3184.59 0.4 0.4 0 0 1 4202.25272 3184.99 L 4194.74728 3184.99 4192.25272 3184.99 4184.74728 3184.99 4182.25272 3184.99 4174.74728 3184.99 4172.25272 3184.99 4077.4 3184.99 A 0.4 0.4 0 0 1 4077 3184.59 L 4077 3166 4066 3166 4066 3168.61304 A 0.4 0.4 0 0 1 4065.6 3169.01304 0.4 0.4 0 0 1 4065.27496 3168.84617 L 4065.27496 3168.84617 A 4.5533 4.5533 0 0 0 4063.59665 3167.42011 L 4063.59665 3169.47835 4065.6 3169.47835 A 0.4 0.4 0 0 1 4066 3169.87835 L 4066 3173.12165 A 0.4 0.4 0 0 1 4065.6 3173.52165 L 4063.59665 3173.52165 4063.59665 3175.57989 A 4.5533 4.5533 0 0 0 4065.27496 3174.15383 0.4 0.4 0 0 1 4065.6 3173.98696 0.4 0.4 0 0 1 4066 3174.38696 L 4066 3184.59 A 0.4 0.4 0 0 1 4065.6 3184.99 L 4051.41 3184.99 A 0.4 0.4 0 0 1 4051.01 3184.59 L 4051.01 3092.9217 A 0.4 0.4 0 0 1 4051.41 3092.5217 L 4210.0075 3092.5217 A 0.4 0.4 0 0 1 4210.4075 3092.9217 L 4210.4075 3184.59 Z M 4158.2002 3181.71 A 1.41 1.41 0 0 0 4159.19724 3181.297 L 4165.49704 3174.997 A 1.41 1.41 0 0 0 4165.91 3174 L 4165.91 3174 4165.91 3170.74973 A 0.4 0.4 0 0 1 4166.02716 3170.46688 L 4169.02613 3167.46791 A 0.4 0.4 0 0 1 4169.30897 3167.35075 0.4 0.4 0 0 1 4169.70897 3167.75075 0.4 0.4 0 0 1 4169.66142 3167.93991 L 4169.66142 3167.93991 A 4.35645 4.35645 0 0 0 4169.14355 3170 4.35645 4.35645 0 0 0 4173.5 3174.35645 4.35645 4.35645 0 0 0 4177.85645 3170 4.35645 4.35645 0 0 0 4175.03045 3165.92123 L 4175.03045 3165.92123 A 0.4 0.4 0 0 1 4174.77097 3165.54672 0.4 0.4 0 0 1 4174.79272 3165.41662 1.8958 1.8958 0 0 0 4174.8958 3164.8 1.8958 1.8958 0 0 0 4174.86825 3164.47795 0.4 0.4 0 0 1 4174.86243 3164.41 0.4 0.4 0 0 1 4175.26243 3164.01 L 4183.79464 3164.01 A 0.4 0.4 0 0 1 4184.07748 3164.12716 L 4185.09585 3165.14552 A 0.4 0.4 0 0 1 4185.213 3165.42837 0.4 0.4 0 0 1 4184.813 3165.82837 0.4 0.4 0 0 1 4184.70259 3165.81282 L 4184.70259 3165.81282 A 4.35645 4.35645 0 0 0 4183.5 3165.64355 4.35645 4.35645 0 0 0 4179.14355 3170 4.35645 4.35645 0 0 0 4183.5 3174.35645 4.35645 4.35645 0 0 0 4187.85645 3170 4.35645 4.35645 0 0 0 4187.68718 3168.79741 0.4 0.4 0 0 1 4187.67163 3168.687 0.4 0.4 0 0 1 4188.07163 3168.287 0.4 0.4 0 0 1 4188.35448 3168.40415 L 4189.06474 3169.11441 A 0.4 0.4 0 0 1 4189.18189 3169.39726 0.4 0.4 0 0 1 4189.17867 3169.44794 L 4189.17867 3169.44794 A 4.35645 4.35645 0 0 0 4189.14355 3170 4.35645 4.35645 0 0 0 4193.5 3174.35645 4.35645 4.35645 0 0 0 4197.85645 3170 4.35645 4.35645 0 0 0 4197.82133 3169.44794 0.4 0.4 0 0 1 4197.81811 3169.39726 0.4 0.4 0 0 1 4197.93526 3169.11441 L 4198.64552 3168.40415 A 0.4 0.4 0 0 1 4198.92837 3168.287 0.4 0.4 0 0 1 4199.32837 3168.687 0.4 0.4 0 0 1 4199.31282 3168.79741 4.35645 4.35645 0 0 0 4199.14355 3170 4.35645 4.35645 0 0 0 4203.5 3174.35645 4.35645 4.35645 0 0 0 4207.85645 3170 4.35645 4.35645 0 0 0 4203.5 3165.64355 4.35645 4.35645 0 0 0 4202.29741 3165.81282 0.4 0.4 0 0 1 4202.187 3165.82837 0.4 0.4 0 0 1 4201.787 3165.42837 0.4 0.4 0 0 1 4201.90415 3165.14552 L 4201.90415 3165.14552 4205.27484 3161.77484 A 2.51 2.51 0 0 0 4206.01 3160 L 4206.01 3152 4206.01 3124 A 2.51 2.51 0 0 0 4205.27484 3122.22516 L 4205.27484 3122.22516 4197.77484 3114.72516 4197.77484 3114.72516 A 2.51 2.51 0 0 0 4196 3113.99 L 4196 3113.99 4194.5 3113.99 4194.5 3113.99 A 2.51 2.51 0 0 0 4193.09324 3114.42127 L 4193.09324 3114.42127 A 0.4 0.4 0 0 1 4192.86905 3114.49 L 4174.002 3114.49 A 0.4 0.4 0 0 1 4173.84844 3114.45935 2.21 2.21 0 0 0 4173 3114.29 2.21 2.21 0 0 0 4170.82952 3116.08393 L 4170.82952 3116.08393 A 0.4 0.4 0 0 1 4170.71951 3116.29147 L 4165.75549 3121.25549 4165.75549 3121.25549 A 1.76 1.76 0 0 0 4165.24 3122.5 L 4165.24 3134.53491 A 0.4 0.4 0 0 1 4165.17103 3134.75944 L 4165.17103 3134.75944 A 2.21 2.21 0 0 0 4164.79 3136 2.21 2.21 0 0 0 4167 3138.21 2.21 2.21 0 0 0 4168.85437 3137.20226 L 4168.85437 3137.20226 A 0.4 0.4 0 0 1 4169.19 3137.01986 0.4 0.4 0 0 1 4169.59 3137.41986 L 4169.59 3140.0877 A 0.4 0.4 0 0 1 4169.50536 3140.33376 1.8958 1.8958 0 0 0 4169.1042 3141.5 1.8958 1.8958 0 0 0 4170.10889 3143.17332 L 4170.10889 3143.17332 A 0.4 0.4 0 0 1 4170.32088 3143.52637 0.4 0.4 0 0 1 4170.28313 3143.69601 L 4170.28313 3143.69601 A 1.8958 1.8958 0 0 0 4170.1042 3144.5 1.8958 1.8958 0 0 0 4172 3146.3958 1.8958 1.8958 0 0 0 4173.39555 3145.78316 L 4173.39555 3145.78316 A 0.4 0.4 0 0 1 4173.69 3145.6539 0.4 0.4 0 0 1 4174.09 3146.0539 L 4174.09 3150.0877 A 0.4 0.4 0 0 1 4174.00536 3150.33376 1.8958 1.8958 0 0 0 4173.6042 3151.5 1.8958 1.8958 0 0 0 4175.5 3153.3958 1.8958 1.8958 0 0 0 4177.3958 3151.5 1.8958 1.8958 0 0 0 4176.99464 3150.33376 0.4 0.4 0 0 1 4176.91 3150.0877 L 4176.91 3127.74973 A 0.4 0.4 0 0 1 4177.02716 3127.46688 L 4182.49837 3121.99567 A 0.4 0.4 0 0 1 4182.73222 3121.88152 L 4182.73222 3121.88152 A 1.8958 1.8958 0 0 0 4184.3958 3120 1.8958 1.8958 0 0 0 4184.1685 3119.09991 0.4 0.4 0 0 1 4184.12054 3118.91 0.4 0.4 0 0 1 4184.52054 3118.51 L 4192.86905 3118.51 A 0.4 0.4 0 0 1 4193.09324 3118.57873 2.51 2.51 0 0 0 4194.5 3119.01 L 4194.5 3119.01 4194.79464 3119.01 A 0.4 0.4 0 0 1 4195.07748 3119.12716 L 4200.87284 3124.92252 A 0.4 0.4 0 0 1 4200.99 3125.20536 L 4200.99 3152 4200.99 3158.79464 A 0.4 0.4 0 0 1 4200.87284 3159.07748 L 4194.38559 3165.56474 A 0.4 0.4 0 0 1 4194.10274 3165.68189 0.4 0.4 0 0 1 4194.05206 3165.67867 L 4194.05206 3165.67867 A 4.35645 4.35645 0 0 0 4193.5 3165.64355 4.35645 4.35645 0 0 0 4192.94794 3165.67867 L 4192.94794 3165.67867 A 0.4 0.4 0 0 1 4192.89726 3165.68189 0.4 0.4 0 0 1 4192.61441 3165.56474 L 4186.77484 3159.72516 4186.77484 3159.72516 A 2.51 2.51 0 0 0 4185 3158.99 L 4185 3158.99 4133.16403 3158.99 A 0.4 0.4 0 0 1 4133.07504 3158.97998 2.5848 2.5848 0 0 0 4132.5 3158.9152 2.5848 2.5848 0 0 0 4129.9152 3161.5 2.5848 2.5848 0 0 0 4130.31247 3162.87692 L 4130.31247 3162.87692 A 0.4 0.4 0 0 1 4130.37395 3163.09 0.4 0.4 0 0 1 4129.97395 3163.49 L 4105.002 3163.49 A 0.4 0.4 0 0 1 4104.84844 3163.45935 2.21 2.21 0 0 0 4104 3163.29 2.21 2.21 0 0 0 4101.79 3165.5 2.21 2.21 0 0 0 4104 3167.71 2.21 2.21 0 0 0 4104.84844 3167.54065 0.4 0.4 0 0 1 4105.002 3167.51 L 4130 3167.51 4162.998 3167.51 A 0.4 0.4 0 0 1 4163.15156 3167.54065 2.21 2.21 0 0 0 4163.86068 3167.7056 0.4 0.4 0 0 1 4164.23546 3168.10481 0.4 0.4 0 0 1 4164.11831 3168.38765 L 4163.50298 3169.00298 A 1.41 1.41 0 0 0 4163.09 3170 L 4163.09 3170 4163.09 3173.25029 A 0.4 0.4 0 0 1 4162.97285 3173.53313 L 4159.4063 3177.09979 A 0.4 0.4 0 0 1 4159.12345 3177.21695 0.4 0.4 0 0 1 4158.72345 3176.81695 0.4 0.4 0 0 1 4158.72417 3176.79295 3.3722 3.3722 0 0 0 4158.73025 3176.59055 L 4158.73025 3175.40945 A 3.3722 3.3722 0 0 0 4155.35805 3172.03725 3.3722 3.3722 0 0 0 4152.71863 3173.31059 0.4 0.4 0 0 1 4152.40555 3173.46163 0.4 0.4 0 0 1 4152.09247 3173.31059 L 4152.09247 3173.31059 A 3.3722 3.3722 0 0 0 4149.45305 3172.03725 3.3722 3.3722 0 0 0 4146.81318 3173.31116 L 4146.81318 3173.31116 A 0.4 0.4 0 0 1 4146.50005 3173.46226 0.4 0.4 0 0 1 4146.18692 3173.31116 L 4146.18692 3173.31116 A 3.3722 3.3722 0 0 0 4143.54705 3172.03725 3.3722 3.3722 0 0 0 4140.90763 3173.31059 0.4 0.4 0 0 1 4140.59455 3173.46163 0.4 0.4 0 0 1 4140.28147 3173.31059 L 4140.28147 3173.31059 A 3.3722 3.3722 0 0 0 4137.64205 3172.03725 3.3722 3.3722 0 0 0 4134.26985 3175.40945 L 4134.26985 3176.59055 A 3.3722 3.3722 0 0 0 4134.72856 3178.28858 L 4134.72856 3178.28858 A 0.4 0.4 0 0 1 4134.78297 3178.49 0.4 0.4 0 0 1 4134.38297 3178.89 L 4125.15903 3178.89 A 0.4 0.4 0 0 1 4124.75903 3178.49 0.4 0.4 0 0 1 4124.81344 3178.28858 3.3722 3.3722 0 0 0 4125.27215 3176.59055 L 4125.27215 3175.40945 A 3.3722 3.3722 0 0 0 4121.89995 3172.03725 3.3722 3.3722 0 0 0 4119.26276 3173.30779 0.4 0.4 0 0 1 4118.94995 3173.45849 0.4 0.4 0 0 1 4118.63714 3173.30779 L 4118.63714 3173.30779 A 3.3722 3.3722 0 0 0 4115.99995 3172.03725 3.3722 3.3722 0 0 0 4113.36276 3173.30779 L 4113.36276 3173.30779 A 0.4 0.4 0 0 1 4113.04995 3173.45849 0.4 0.4 0 0 1 4112.73714 3173.30779 L 4112.73714 3173.30779 A 3.3722 3.3722 0 0 0 4111.53105 3172.35598 L 4111.53105 3174.27363 4112.30021 3174.27363 A 0.4 0.4 0 0 1 4112.70021 3174.67363 0.4 0.4 0 0 1 4112.69253 3174.75165 L 4112.69253 3174.75165 A 3.3722 3.3722 0 0 0 4112.62775 3175.40945 L 4112.62775 3176.59055 A 3.3722 3.3722 0 0 0 4112.69253 3177.24835 0.4 0.4 0 0 1 4112.70021 3177.32638 0.4 0.4 0 0 1 4112.30021 3177.72638 L 4111.53105 3177.72638 4111.53105 3179.64402 A 3.3722 3.3722 0 0 0 4112.73714 3178.69221 0.4 0.4 0 0 1 4113.04995 3178.54151 0.4 0.4 0 0 1 4113.36276 3178.69221 L 4113.36276 3178.69221 A 3.3722 3.3722 0 0 0 4115.99995 3179.96275 3.3722 3.3722 0 0 0 4116.65377 3179.89876 L 4116.65377 3179.89876 A 0.4 0.4 0 0 1 4116.73132 3179.89117 0.4 0.4 0 0 1 4117.01417 3180.00834 L 4118.30275 3181.29699 A 1.41 1.41 0 0 0 4119.2998 3181.71 L 4158.2002 3181.71 Z M 4099.65156 3143.04065 A 2.21 2.21 0 0 0 4100.5 3143.21 2.21 2.21 0 0 0 4102.71 3141 2.21 2.21 0 0 0 4100.5 3138.79 2.21 2.21 0 0 0 4099.65156 3138.95935 0.4 0.4 0 0 1 4099.498 3138.99 L 4062.99825 3138.99 A 0.4 0.4 0 0 1 4062.71541 3138.87284 L 4061.42128 3137.57872 A 2.01 2.01 0 0 0 4060 3136.99 2.01 2.01 0 0 0 4057.99 3139 2.01 2.01 0 0 0 4058.57872 3140.42128 L 4060.57872 3142.42128 A 2.01 2.01 0 0 0 4062 3143.01 L 4062 3143.01 4099.498 3143.01 A 0.4 0.4 0 0 1 4099.65156 3143.04065 Z M 4059.55335 3175.57989 L 4059.55335 3173.52165 4057.49511 3173.52165 A 4.5533 4.5533 0 0 0 4059.55335 3175.57989 Z M 4059.55335 3169.47835 L 4059.55335 3167.42011 A 4.5533 4.5533 0 0 0 4057.49511 3169.47835 L 4059.55335 3169.47835 Z M 4195.42322 3176.09105 L 4195.42322 3178.07677 4197.40895 3178.07677 A 4.35645 4.35645 0 0 0 4195.42322 3176.09105 Z M 4195.42322 3183.90895 A 4.35645 4.35645 0 0 0 4197.40895 3181.92322 L 4195.42322 3181.92322 4195.42322 3183.90895 Z M 4171.57678 3183.90895 L 4171.57678 3181.92322 4169.59105 3181.92322 A 4.35645 4.35645 0 0 0 4171.57678 3183.90895 Z M 4181.57678 3176.09105 A 4.35645 4.35645 0 0 0 4179.59105 3178.07677 L 4181.57678 3178.07677 4181.57678 3176.09105 Z M 4185.42322 3176.09105 L 4185.42322 3178.07677 4187.40895 3178.07677 A 4.35645 4.35645 0 0 0 4185.42322 3176.09105 Z M 4175.42322 3183.90895 A 4.35645 4.35645 0 0 0 4177.40895 3181.92322 L 4175.42322 3181.92322 4175.42322 3183.90895 Z M 4191.57678 3183.90895 L 4191.57678 3181.92322 4189.59105 3181.92322 A 4.35645 4.35645 0 0 0 4191.57678 3183.90895 Z M 4171.57678 3178.07677 L 4171.57678 3176.09105 A 4.35645 4.35645 0 0 0 4169.59105 3178.07677 L 4171.57678 3178.07677 Z M 4191.57678 3178.07677 L 4191.57678 3176.09105 A 4.35645 4.35645 0 0 0 4189.59105 3178.07677 L 4191.57678 3178.07677 Z M 4179.59105 3181.92322 A 4.35645 4.35645 0 0 0 4181.57678 3183.90895 L 4181.57678 3181.92322 4179.59105 3181.92322 Z M 4185.42322 3183.90895 A 4.35645 4.35645 0 0 0 4187.40895 3181.92322 L 4185.42322 3181.92322 4185.42322 3183.90895 Z M 4175.42322 3176.09105 L 4175.42322 3178.07677 4177.40895 3178.07677 A 4.35645 4.35645 0 0 0 4175.42322 3176.09105 Z M 4106.92479 3177.72638 A 3.3722 3.3722 0 0 0 4108.66885 3179.64402 L 4108.66885 3177.72638 4106.92479 3177.72638 Z M 4108.66885 3172.35598 A 3.3722 3.3722 0 0 0 4106.92479 3174.27363 L 4108.66885 3174.27363 4108.66885 3172.35598 Z " stroke-width="0" layerid="2" attachedcopperid="gge3393" c_shapetype="line" id="gge3393_0" class=""></path><polyline points="4116 3176 4116 3177 4119.2998 3180.3 4158.2002 3180.3 4164.5 3174 4164.5 3170 4169.7 3164.8 4173 3164.8" stroke-width="0.8"  stroke-linecap="round" fill="none" layerid="2" net="DS18" id="gge4466" locked="0" /><polyline points="4194.5 3116.5 4196 3116.5 4203.5 3124" stroke-width="3"  stroke-linecap="round" fill="none" layerid="2" net="3.3V" id="gge3099" locked="0" /><polyline points="4203.5 3124 4203.5 3152" stroke-width="3"  stroke-linecap="round" fill="none" layerid="2" net="3.3V" id="gge3100" locked="0" /><polyline points="4193.5 3170 4203.5 3160 4203.5 3152" stroke-width="3"  stroke-linecap="round" fill="none" layerid="2" net="3.3V" id="gge4456" locked="0" /><polyline points="4193.5 3170 4185 3161.5 4132.5 3161.5" stroke-width="3"  stroke-linecap="round" fill="none" layerid="2" net="3.3V" id="gge4450" locked="0" /><polyline points="4060 3139 4062 3141 4100.5 3141" stroke-width="2"  stroke-linecap="round" fill="none" layerid="2" net="R1_2" id="gge3064" locked="0" /><polyline points="4164 3165.5 4130 3165.5 4104 3165.5" stroke-width="2"  stroke-linecap="round" fill="none" layerid="2" net="5V" id="gge4360" locked="0" /><polyline points="4172 3144.5 4173.5 3143 4173.5 3123.5 4172.5 3122.5" stroke-width="0.8"  stroke-linecap="round" fill="none" layerid="2" net="SCL" id="gge4254" locked="0" /><polyline points="4173 3116.5 4173 3116.5 4194.5 3116.5" stroke-width="2"  stroke-linecap="round" fill="none" layerid="2" net="3.3V" id="gge3213" locked="0" /><polyline points="4167 3136 4167 3122.5 4173 3116.5" stroke-width="1.5"  stroke-linecap="round" fill="none" layerid="2" net="3.3V" id="gge3098" locked="0" /><polyline points="4171 3141.5 4171 3125 4170.5 3124.5" stroke-width="0.8"  stroke-linecap="round" fill="none" layerid="2" net="SDA" id="gge3113" locked="0" /><polyline points="4182.5 3120 4175.5 3127 4175.5 3151.5" stroke-width="0.8"  stroke-linecap="round" fill="none" layerid="2" net="RST" id="gge3353" locked="0" /><rect x="4065" y="3177" width="13" height="8" stroke-width="0"  c_etype="" transform="" layerid="2" id="gge3396" locked="0" c_shapetype="line" net="GND" /></g><g transform="matrix(-1, 0, 0, 1, 8261.5, 0)"><polyline points="4167.501 3151.9865 4209.001 3151.9865" stroke-width="0.6"  stroke-linecap="round" fill="none" layerid="4" net="S$31345" id="gge4215" locked="0" /><polyline points="4198.4873 3142.0019 4198.4873 3162.0004" stroke-width="0.6"  stroke-linecap="round" fill="none" layerid="4" net="S$31353" id="gge4216" locked="0" /><polyline points="4178.3535 3142.0019 4178.3535 3162.0004" stroke-width="0.6"  stroke-linecap="round" fill="none" layerid="4" net="S$31348" id="gge4217" locked="0" /><polyline points="4188 3142.0004 4188 3161.999" stroke-width="0.6"  stroke-linecap="round" fill="none" layerid="4" net="S$31351" id="gge4218" locked="0" /><polyline points="4167.502 3142.0019 4209.002 3142.0019 4209.002 3162.0019 4167.502 3162.0019 4167.502 3142.0019" stroke-width="0.6"  stroke-linecap="round" fill="none" layerid="4" net="S$31343" id="gge4219" locked="0" /><g c_partid="part_pcbtext" c_etype="pinpart" c_origin="4120,3168.5" c_rotation="270" c_mirror="1" id="gge4196" locked="0" layerid="4" c_shapetype="group" ><path c_fontsize="3.5" c_fontfamily="" c_text="3V3" d="M 4123.5268 3168.1826 L 4123.5268 3166.4326 L 4122.2541 3167.3872 L 4122.2541 3166.9099 L 4122.095 3166.5917 L 4121.9359 3166.4326 L 4121.4586 3166.2735 L 4121.1405 3166.2735 L 4120.6632 3166.4326 L 4120.345 3166.7508 L 4120.1859 3167.2281 L 4120.1859 3167.7053 L 4120.345 3168.1826 L 4120.5041 3168.3417 L 4120.8223 3168.5008 M 4123.5268 3165.2235 L 4120.1859 3163.9508 M 4123.5268 3162.6781 L 4120.1859 3163.9508 M 4123.5268 3161.3099 L 4123.5268 3159.5599 L 4122.2541 3160.5144 L 4122.2541 3160.0372 L 4122.095 3159.719 L 4121.9359 3159.5599 L 4121.4586 3159.4008 L 4121.1405 3159.4008 L 4120.6632 3159.5599 L 4120.345 3159.8781 L 4120.1859 3160.3553 L 4120.1859 3160.8326 L 4120.345 3161.3099 L 4120.5041 3161.469 L 4120.8223 3161.6281" fill="none"  stroke-width="0.6"  /></g><g c_partid="part_pcbtext" c_etype="pinpart" c_origin="4205,3116" c_rotation="0" c_mirror="1" id="gge4197" locked="0" layerid="4" c_shapetype="group" ><path c_fontsize="6" c_fontfamily="" c_text="by MSpider65" d="M 4205 3109.9483 L 4205 3115.6755 M 4205 3112.6755 L 4204.4545 3112.1301 L 4203.9091 3111.8573 L 4203.0909 3111.8573 L 4202.5455 3112.1301 L 4202 3112.6755 L 4201.7273 3113.4937 L 4201.7273 3114.0392 L 4202 3114.8573 L 4202.5455 3115.4028 L 4203.0909 3115.6755 L 4203.9091 3115.6755 L 4204.4545 3115.4028 L 4205 3114.8573 M 4199.6545 3111.8573 L 4198.0182 3115.6755 M 4196.3818 3111.8573 L 4198.0182 3115.6755 L 4198.5636 3116.7664 L 4199.1091 3117.3119 L 4199.6545 3117.5846 L 4199.9273 3117.5846 M 4190.3818 3109.9483 L 4190.3818 3115.6755 M 4190.3818 3109.9483 L 4188.2 3115.6755 M 4186.0182 3109.9483 L 4188.2 3115.6755 M 4186.0182 3109.9483 L 4186.0182 3115.6755 M 4180.4 3110.7664 L 4180.9455 3110.221 L 4181.7636 3109.9483 L 4182.8545 3109.9483 L 4183.6727 3110.221 L 4184.2182 3110.7664 L 4184.2182 3111.3119 L 4183.9455 3111.8573 L 4183.6727 3112.1301 L 4183.1273 3112.4028 L 4181.4909 3112.9483 L 4180.9455 3113.221 L 4180.6727 3113.4937 L 4180.4 3114.0392 L 4180.4 3114.8573 L 4180.9455 3115.4028 L 4181.7636 3115.6755 L 4182.8545 3115.6755 L 4183.6727 3115.4028 L 4184.2182 3114.8573 M 4178.6 3111.8573 L 4178.6 3117.5846 M 4178.6 3112.6755 L 4178.0545 3112.1301 L 4177.5091 3111.8573 L 4176.6909 3111.8573 L 4176.1455 3112.1301 L 4175.6 3112.6755 L 4175.3273 3113.4937 L 4175.3273 3114.0392 L 4175.6 3114.8573 L 4176.1455 3115.4028 L 4176.6909 3115.6755 L 4177.5091 3115.6755 L 4178.0545 3115.4028 L 4178.6 3114.8573 M 4173.5273 3109.9483 L 4173.2545 3110.221 L 4172.9818 3109.9483 L 4173.2545 3109.6755 L 4173.5273 3109.9483 M 4173.2545 3111.8573 L 4173.2545 3115.6755 M 4167.9091 3109.9483 L 4167.9091 3115.6755 M 4167.9091 3112.6755 L 4168.4545 3112.1301 L 4169 3111.8573 L 4169.8182 3111.8573 L 4170.3636 3112.1301 L 4170.9091 3112.6755 L 4171.1818 3113.4937 L 4171.1818 3114.0392 L 4170.9091 3114.8573 L 4170.3636 3115.4028 L 4169.8182 3115.6755 L 4169 3115.6755 L 4168.4545 3115.4028 L 4167.9091 3114.8573 M 4166.1091 3113.4937 L 4162.8364 3113.4937 L 4162.8364 3112.9483 L 4163.1091 3112.4028 L 4163.3818 3112.1301 L 4163.9273 3111.8573 L 4164.7455 3111.8573 L 4165.2909 3112.1301 L 4165.8364 3112.6755 L 4166.1091 3113.4937 L 4166.1091 3114.0392 L 4165.8364 3114.8573 L 4165.2909 3115.4028 L 4164.7455 3115.6755 L 4163.9273 3115.6755 L 4163.3818 3115.4028 L 4162.8364 3114.8573 M 4161.0364 3111.8573 L 4161.0364 3115.6755 M 4161.0364 3113.4937 L 4160.7636 3112.6755 L 4160.2182 3112.1301 L 4159.6727 3111.8573 L 4158.8545 3111.8573 M 4153.7818 3110.7664 L 4154.0545 3110.221 L 4154.8727 3109.9483 L 4155.4182 3109.9483 L 4156.2364 3110.221 L 4156.7818 3111.0392 L 4157.0545 3112.4028 L 4157.0545 3113.7664 L 4156.7818 3114.8573 L 4156.2364 3115.4028 L 4155.4182 3115.6755 L 4155.1455 3115.6755 L 4154.3273 3115.4028 L 4153.7818 3114.8573 L 4153.5091 3114.0392 L 4153.5091 3113.7664 L 4153.7818 3112.9483 L 4154.3273 3112.4028 L 4155.1455 3112.1301 L 4155.4182 3112.1301 L 4156.2364 3112.4028 L 4156.7818 3112.9483 L 4157.0545 3113.7664 M 4148.4364 3109.9483 L 4151.1636 3109.9483 L 4151.4364 3112.4028 L 4151.1636 3112.1301 L 4150.3455 3111.8573 L 4149.5273 3111.8573 L 4148.7091 3112.1301 L 4148.1636 3112.6755 L 4147.8909 3113.4937 L 4147.8909 3114.0392 L 4148.1636 3114.8573 L 4148.7091 3115.4028 L 4149.5273 3115.6755 L 4150.3455 3115.6755 L 4151.1636 3115.4028 L 4151.4364 3115.1301 L 4151.7091 3114.5846" fill="none"  stroke-width="0.8"  /></g><g c_partid="part_pcbtext" c_etype="pinpart" c_origin="4205,3104.5" c_rotation="0" c_mirror="1" id="gge4198" locked="0" layerid="4" c_shapetype="group" ><path c_fontsize="6" c_fontfamily="" c_text="ESP32_TSDZ v1" d="M 4205 3098.4483 L 4205 3104.1755 M 4205 3098.4483 L 4201.4545 3098.4483 M 4205 3101.1755 L 4202.8182 3101.1755 M 4205 3104.1755 L 4201.4545 3104.1755 M 4195.8364 3099.2664 L 4196.3818 3098.721 L 4197.2 3098.4483 L 4198.2909 3098.4483 L 4199.1091 3098.721 L 4199.6545 3099.2664 L 4199.6545 3099.8119 L 4199.3818 3100.3573 L 4199.1091 3100.6301 L 4198.5636 3100.9028 L 4196.9273 3101.4483 L 4196.3818 3101.721 L 4196.1091 3101.9937 L 4195.8364 3102.5392 L 4195.8364 3103.3573 L 4196.3818 3103.9028 L 4197.2 3104.1755 L 4198.2909 3104.1755 L 4199.1091 3103.9028 L 4199.6545 3103.3573 M 4194.0364 3098.4483 L 4194.0364 3104.1755 M 4194.0364 3098.4483 L 4191.5818 3098.4483 L 4190.7636 3098.721 L 4190.4909 3098.9937 L 4190.2182 3099.5392 L 4190.2182 3100.3573 L 4190.4909 3100.9028 L 4190.7636 3101.1755 L 4191.5818 3101.4483 L 4194.0364 3101.4483 M 4187.8727 3098.4483 L 4184.8727 3098.4483 L 4186.5091 3100.6301 L 4185.6909 3100.6301 L 4185.1455 3100.9028 L 4184.8727 3101.1755 L 4184.6 3101.9937 L 4184.6 3102.5392 L 4184.8727 3103.3573 L 4185.4182 3103.9028 L 4186.2364 3104.1755 L 4187.0545 3104.1755 L 4187.8727 3103.9028 L 4188.1455 3103.6301 L 4188.4182 3103.0846 M 4182.5273 3099.8119 L 4182.5273 3099.5392 L 4182.2545 3098.9937 L 4181.9818 3098.721 L 4181.4364 3098.4483 L 4180.3455 3098.4483 L 4179.8 3098.721 L 4179.5273 3098.9937 L 4179.2545 3099.5392 L 4179.2545 3100.0846 L 4179.5273 3100.6301 L 4180.0727 3101.4483 L 4182.8 3104.1755 L 4178.9818 3104.1755 M 4177.1818 3106.0846 L 4172.2727 3106.0846 M 4168.5636 3098.4483 L 4168.5636 3104.1755 M 4170.4727 3098.4483 L 4166.6545 3098.4483 M 4161.0364 3099.2664 L 4161.5818 3098.721 L 4162.4 3098.4483 L 4163.4909 3098.4483 L 4164.3091 3098.721 L 4164.8545 3099.2664 L 4164.8545 3099.8119 L 4164.5818 3100.3573 L 4164.3091 3100.6301 L 4163.7636 3100.9028 L 4162.1273 3101.4483 L 4161.5818 3101.721 L 4161.3091 3101.9937 L 4161.0364 3102.5392 L 4161.0364 3103.3573 L 4161.5818 3103.9028 L 4162.4 3104.1755 L 4163.4909 3104.1755 L 4164.3091 3103.9028 L 4164.8545 3103.3573 M 4159.2364 3098.4483 L 4159.2364 3104.1755 M 4159.2364 3098.4483 L 4157.3273 3098.4483 L 4156.5091 3098.721 L 4155.9636 3099.2664 L 4155.6909 3099.8119 L 4155.4182 3100.6301 L 4155.4182 3101.9937 L 4155.6909 3102.8119 L 4155.9636 3103.3573 L 4156.5091 3103.9028 L 4157.3273 3104.1755 L 4159.2364 3104.1755 M 4149.8 3098.4483 L 4153.6182 3104.1755 M 4153.6182 3098.4483 L 4149.8 3098.4483 M 4153.6182 3104.1755 L 4149.8 3104.1755 M 4143.8 3100.3573 L 4142.1636 3104.1755 M 4140.5273 3100.3573 L 4142.1636 3104.1755 M 4138.7273 3099.5392 L 4138.1818 3099.2664 L 4137.3636 3098.4483 L 4137.3636 3104.1755" fill="none"  stroke-width="0.8"  /></g><g c_partid="part_pcbtext" c_etype="pinpart" c_origin="4070,3163.5" c_rotation="270" c_mirror="1" id="gge4199" locked="0" layerid="4" c_shapetype="group" ><path c_fontsize="3.5" c_fontfamily="" c_text="+Batt" d="M 4073.0525 3162.0678 L 4070.1889 3162.0678 M 4071.6207 3163.4996 L 4071.6207 3160.636 M 4073.5298 3159.586 L 4070.1889 3159.586 M 4073.5298 3159.586 L 4073.5298 3158.1541 L 4073.3707 3157.6769 L 4073.2116 3157.5178 L 4072.8935 3157.3587 L 4072.5753 3157.3587 L 4072.2571 3157.5178 L 4072.098 3157.6769 L 4071.9389 3158.1541 M 4071.9389 3159.586 L 4071.9389 3158.1541 L 4071.7798 3157.6769 L 4071.6207 3157.5178 L 4071.3025 3157.3587 L 4070.8253 3157.3587 L 4070.5071 3157.5178 L 4070.348 3157.6769 L 4070.1889 3158.1541 L 4070.1889 3159.586 M 4072.4162 3154.3996 L 4070.1889 3154.3996 M 4071.9389 3154.3996 L 4072.2571 3154.7178 L 4072.4162 3155.036 L 4072.4162 3155.5132 L 4072.2571 3155.8314 L 4071.9389 3156.1496 L 4071.4616 3156.3087 L 4071.1435 3156.3087 L 4070.6662 3156.1496 L 4070.348 3155.8314 L 4070.1889 3155.5132 L 4070.1889 3155.036 L 4070.348 3154.7178 L 4070.6662 3154.3996 M 4073.5298 3152.8723 L 4070.8253 3152.8723 L 4070.348 3152.7132 L 4070.1889 3152.3951 L 4070.1889 3152.0769 M 4072.4162 3153.3496 L 4072.4162 3152.236 M 4073.5298 3150.5496 L 4070.8253 3150.5496 L 4070.348 3150.3905 L 4070.1889 3150.0723 L 4070.1889 3149.7541 M 4072.4162 3151.0269 L 4072.4162 3149.9132" fill="none"  stroke-width="0.6"  /></g><g c_partid="part_pcbtext" c_etype="pinpart" c_origin="4108,3168.5" c_rotation="270" c_mirror="1" id="gge4200" locked="0" layerid="4" c_shapetype="group" ><path c_fontsize="3.5" c_fontfamily="" c_text="GND" d="M 4110.7326 3166.1146 L 4111.0507 3166.2737 L 4111.3689 3166.5919 L 4111.528 3166.9101 L 4111.528 3167.5465 L 4111.3689 3167.8646 L 4111.0507 3168.1828 L 4110.7326 3168.3419 L 4110.2553 3168.501 L 4109.4598 3168.501 L 4108.9826 3168.3419 L 4108.6644 3168.1828 L 4108.3462 3167.8646 L 4108.1871 3167.5465 L 4108.1871 3166.9101 L 4108.3462 3166.5919 L 4108.6644 3166.2737 L 4108.9826 3166.1146 L 4109.4598 3166.1146 M 4109.4598 3166.9101 L 4109.4598 3166.1146 M 4111.528 3165.0646 L 4108.1871 3165.0646 M 4111.528 3165.0646 L 4108.1871 3162.8374 M 4111.528 3162.8374 L 4108.1871 3162.8374 M 4111.528 3161.7874 L 4108.1871 3161.7874 M 4111.528 3161.7874 L 4111.528 3160.6737 L 4111.3689 3160.1965 L 4111.0507 3159.8783 L 4110.7326 3159.7192 L 4110.2553 3159.5601 L 4109.4598 3159.5601 L 4108.9826 3159.7192 L 4108.6644 3159.8783 L 4108.3462 3160.1965 L 4108.1871 3160.6737 L 4108.1871 3161.7874" fill="none"  stroke-width="0.6"  /></g><g c_partid="part_pcbtext" c_etype="pinpart" c_origin="4135.5,3168.5" c_rotation="270" c_mirror="1" id="gge4201" locked="0" layerid="4" c_shapetype="group" ><path c_fontsize="3.5" c_fontfamily="" c_text="TXC" d="M 4139.0288 3167.3872 L 4135.6879 3167.3872 M 4139.0288 3168.5008 L 4139.0288 3166.2735 M 4139.0288 3165.2235 L 4135.6879 3162.9963 M 4139.0288 3162.9963 L 4135.6879 3165.2235 M 4138.2334 3159.5599 L 4138.5515 3159.719 L 4138.8697 3160.0372 L 4139.0288 3160.3553 L 4139.0288 3160.9917 L 4138.8697 3161.3099 L 4138.5515 3161.6281 L 4138.2334 3161.7872 L 4137.7561 3161.9463 L 4136.9606 3161.9463 L 4136.4834 3161.7872 L 4136.1652 3161.6281 L 4135.847 3161.3099 L 4135.6879 3160.9917 L 4135.6879 3160.3553 L 4135.847 3160.0372 L 4136.1652 3159.719 L 4136.4834 3159.5599" fill="none"  stroke-width="0.6"  /></g><g c_partid="part_pcbtext" c_etype="pinpart" c_origin="4141.5,3168" c_rotation="270" c_mirror="1" id="gge4202" locked="0" layerid="4" c_shapetype="group" ><path c_fontsize="3.5" c_fontfamily="" c_text="RXC" d="M 4145.0294 3168.0008 L 4141.6885 3168.0008 M 4145.0294 3168.0008 L 4145.0294 3166.569 L 4144.8703 3166.0917 L 4144.7112 3165.9326 L 4144.3931 3165.7735 L 4144.0749 3165.7735 L 4143.7567 3165.9326 L 4143.5976 3166.0917 L 4143.4385 3166.569 L 4143.4385 3168.0008 M 4143.4385 3166.8872 L 4141.6885 3165.7735 M 4145.0294 3164.7235 L 4141.6885 3162.4963 M 4145.0294 3162.4963 L 4141.6885 3164.7235 M 4144.234 3159.0599 L 4144.5521 3159.219 L 4144.8703 3159.5372 L 4145.0294 3159.8553 L 4145.0294 3160.4917 L 4144.8703 3160.8099 L 4144.5521 3161.1281 L 4144.234 3161.2872 L 4143.7567 3161.4463 L 4142.9612 3161.4463 L 4142.484 3161.2872 L 4142.1658 3161.1281 L 4141.8476 3160.8099 L 4141.6885 3160.4917 L 4141.6885 3159.8553 L 4141.8476 3159.5372 L 4142.1658 3159.219 L 4142.484 3159.0599" fill="none"  stroke-width="0.6"  /></g><g c_partid="part_pcbtext" c_etype="pinpart" c_origin="4148,3168.5" c_rotation="270" c_mirror="1" id="gge4203" locked="0" layerid="4" c_shapetype="group" ><path c_fontsize="3.5" c_fontfamily="" c_text="TXL" d="M 4151.5294 3167.3872 L 4148.1885 3167.3872 M 4151.5294 3168.5008 L 4151.5294 3166.2735 M 4151.5294 3165.2235 L 4148.1885 3162.9963 M 4151.5294 3162.9963 L 4148.1885 3165.2235 M 4151.5294 3161.9463 L 4148.1885 3161.9463 M 4148.1885 3161.9463 L 4148.1885 3160.0372" fill="none"  stroke-width="0.6"  /></g><g c_partid="part_pcbtext" c_etype="pinpart" c_origin="4153.5,3168.5" c_rotation="270" c_mirror="1" id="gge4204" locked="0" layerid="4" c_shapetype="group" ><path c_fontsize="3.5" c_fontfamily="" c_text="RXL" d="M 4157.0294 3168.5008 L 4153.6885 3168.5008 M 4157.0294 3168.5008 L 4157.0294 3167.069 L 4156.8703 3166.5917 L 4156.7112 3166.4326 L 4156.3931 3166.2735 L 4156.0749 3166.2735 L 4155.7567 3166.4326 L 4155.5976 3166.5917 L 4155.4385 3167.069 L 4155.4385 3168.5008 M 4155.4385 3167.3872 L 4153.6885 3166.2735 M 4157.0294 3165.2235 L 4153.6885 3162.9963 M 4157.0294 3162.9963 L 4153.6885 3165.2235 M 4157.0294 3161.9463 L 4153.6885 3161.9463 M 4153.6885 3161.9463 L 4153.6885 3160.0372" fill="none"  stroke-width="0.6"  /></g><g c_partid="part_pcbtext" c_etype="pinpart" c_origin="4114,3167.5" c_rotation="270" c_mirror="1" id="gge4205" locked="0" layerid="4" c_shapetype="group" ><path c_fontsize="3.5" c_fontfamily="" c_text="D18" d="M 4117.5284 3167.5008 L 4114.1875 3167.5008 M 4117.5284 3167.5008 L 4117.5284 3166.3872 L 4117.3693 3165.9099 L 4117.0511 3165.5917 L 4116.733 3165.4326 L 4116.2557 3165.2735 L 4115.4602 3165.2735 L 4114.983 3165.4326 L 4114.6648 3165.5917 L 4114.3466 3165.9099 L 4114.1875 3166.3872 L 4114.1875 3167.5008 M 4116.8921 3164.2235 L 4117.0511 3163.9053 L 4117.5284 3163.4281 L 4114.1875 3163.4281 M 4117.5284 3161.5826 L 4117.3693 3162.0599 L 4117.0511 3162.219 L 4116.733 3162.219 L 4116.4148 3162.0599 L 4116.2557 3161.7417 L 4116.0966 3161.1053 L 4115.9375 3160.6281 L 4115.6193 3160.3099 L 4115.3011 3160.1508 L 4114.8239 3160.1508 L 4114.5057 3160.3099 L 4114.3466 3160.469 L 4114.1875 3160.9463 L 4114.1875 3161.5826 L 4114.3466 3162.0599 L 4114.5057 3162.219 L 4114.8239 3162.3781 L 4115.3011 3162.3781 L 4115.6193 3162.219 L 4115.9375 3161.9008 L 4116.0966 3161.4235 L 4116.2557 3160.7872 L 4116.4148 3160.469 L 4116.733 3160.3099 L 4117.0511 3160.3099 L 4117.3693 3160.469 L 4117.5284 3160.9463 L 4117.5284 3161.5826" fill="none"  stroke-width="0.6"  /></g><g c_partid="part_pcbtext" c_etype="pinpart" c_origin="4059.5,3163" c_rotation="270" c_mirror="1" id="gge4206" locked="0" layerid="4" c_shapetype="group" ><path c_fontsize="4" c_fontfamily="" c_text="GND" d="M 4062.6243 3160.2723 L 4062.9879 3160.4541 L 4063.3515 3160.8178 L 4063.5334 3161.1814 L 4063.5334 3161.9087 L 4063.3515 3162.2723 L 4062.9879 3162.636 L 4062.6243 3162.8178 L 4062.0788 3162.9996 L 4061.1697 3162.9996 L 4060.6243 3162.8178 L 4060.2606 3162.636 L 4059.897 3162.2723 L 4059.7152 3161.9087 L 4059.7152 3161.1814 L 4059.897 3160.8178 L 4060.2606 3160.4541 L 4060.6243 3160.2723 L 4061.1697 3160.2723 M 4061.1697 3161.1814 L 4061.1697 3160.2723 M 4063.5334 3159.0723 L 4059.7152 3159.0723 M 4063.5334 3159.0723 L 4059.7152 3156.5269 M 4063.5334 3156.5269 L 4059.7152 3156.5269 M 4063.5334 3155.3269 L 4059.7152 3155.3269 M 4063.5334 3155.3269 L 4063.5334 3154.0541 L 4063.3515 3153.5087 L 4062.9879 3153.1451 L 4062.6243 3152.9632 L 4062.0788 3152.7814 L 4061.1697 3152.7814 L 4060.6243 3152.9632 L 4060.2606 3153.1451 L 4059.897 3153.5087 L 4059.7152 3154.0541 L 4059.7152 3155.3269" fill="none"  stroke-width="0.6"  /></g><g c_partid="part_pcbtext" c_etype="pinpart" c_origin="4208.2,3149" c_rotation="0" c_mirror="1" id="gge4207" locked="0" layerid="4" c_shapetype="group" ><path c_fontsize="3.5" c_fontfamily="" c_text="RXD" d="M 4208.2 3145.4686 L 4208.2 3148.8095 M 4208.2 3145.4686 L 4206.7682 3145.4686 L 4206.2909 3145.6277 L 4206.1318 3145.7868 L 4205.9727 3146.1049 L 4205.9727 3146.4231 L 4206.1318 3146.7413 L 4206.2909 3146.9004 L 4206.7682 3147.0595 L 4208.2 3147.0595 M 4207.0864 3147.0595 L 4205.9727 3148.8095 M 4204.9227 3145.4686 L 4202.6955 3148.8095 M 4202.6955 3145.4686 L 4204.9227 3148.8095 M 4201.6455 3145.4686 L 4201.6455 3148.8095 M 4201.6455 3145.4686 L 4200.5318 3145.4686 L 4200.0545 3145.6277 L 4199.7364 3145.9459 L 4199.5773 3146.264 L 4199.4182 3146.7413 L 4199.4182 3147.5368 L 4199.5773 3148.014 L 4199.7364 3148.3322 L 4200.0545 3148.6504 L 4200.5318 3148.8095 L 4201.6455 3148.8095" fill="none"  stroke-width="0.6"  /></g><g c_partid="part_pcbtext" c_etype="pinpart" c_origin="4208.1,3159" c_rotation="0" c_mirror="1" id="gge4208" locked="0" layerid="4" c_shapetype="group" ><path c_fontsize="3.5" c_fontfamily="" c_text="TXD" d="M 4206.9864 3155.4686 L 4206.9864 3158.8095 M 4208.1 3155.4686 L 4205.8727 3155.4686 M 4204.8227 3155.4686 L 4202.5955 3158.8095 M 4202.5955 3155.4686 L 4204.8227 3158.8095 M 4201.5455 3155.4686 L 4201.5455 3158.8095 M 4201.5455 3155.4686 L 4200.4318 3155.4686 L 4199.9545 3155.6277 L 4199.6364 3155.9459 L 4199.4773 3156.264 L 4199.3182 3156.7413 L 4199.3182 3157.5368 L 4199.4773 3158.014 L 4199.6364 3158.3322 L 4199.9545 3158.6504 L 4200.4318 3158.8095 L 4201.5455 3158.8095" fill="none"  stroke-width="0.6"  /></g><g c_partid="part_pcbtext" c_etype="pinpart" c_origin="4197.8,3149" c_rotation="0" c_mirror="1" id="gge4209" locked="0" layerid="4" c_shapetype="group" ><path c_fontsize="3.5" c_fontfamily="" c_text="3V3" d="M 4197.4818 3145.4686 L 4195.7318 3145.4686 L 4196.6864 3146.7413 L 4196.2091 3146.7413 L 4195.8909 3146.9004 L 4195.7318 3147.0595 L 4195.5727 3147.5368 L 4195.5727 3147.8549 L 4195.7318 3148.3322 L 4196.05 3148.6504 L 4196.5273 3148.8095 L 4197.0045 3148.8095 L 4197.4818 3148.6504 L 4197.6409 3148.4913 L 4197.8 3148.1731 M 4194.5227 3145.4686 L 4193.25 3148.8095 M 4191.9773 3145.4686 L 4193.25 3148.8095 M 4190.6091 3145.4686 L 4188.8591 3145.4686 L 4189.8136 3146.7413 L 4189.3364 3146.7413 L 4189.0182 3146.9004 L 4188.8591 3147.0595 L 4188.7 3147.5368 L 4188.7 3147.8549 L 4188.8591 3148.3322 L 4189.1773 3148.6504 L 4189.6545 3148.8095 L 4190.1318 3148.8095 L 4190.6091 3148.6504 L 4190.7682 3148.4913 L 4190.9273 3148.1731" fill="none"  stroke-width="0.6"  /></g><g c_partid="part_pcbtext" c_etype="pinpart" c_origin="4197.7,3158.9" c_rotation="0" c_mirror="1" id="gge4210" locked="0" layerid="4" c_shapetype="group" ><path c_fontsize="3.5" c_fontfamily="" c_text="GND" d="M 4195.3136 3156.164 L 4195.4727 3155.8459 L 4195.7909 3155.5277 L 4196.1091 3155.3686 L 4196.7455 3155.3686 L 4197.0636 3155.5277 L 4197.3818 3155.8459 L 4197.5409 3156.164 L 4197.7 3156.6413 L 4197.7 3157.4368 L 4197.5409 3157.914 L 4197.3818 3158.2322 L 4197.0636 3158.5504 L 4196.7455 3158.7095 L 4196.1091 3158.7095 L 4195.7909 3158.5504 L 4195.4727 3158.2322 L 4195.3136 3157.914 L 4195.3136 3157.4368 M 4196.1091 3157.4368 L 4195.3136 3157.4368 M 4194.2636 3155.3686 L 4194.2636 3158.7095 M 4194.2636 3155.3686 L 4192.0364 3158.7095 M 4192.0364 3155.3686 L 4192.0364 3158.7095 M 4190.9864 3155.3686 L 4190.9864 3158.7095 M 4190.9864 3155.3686 L 4189.8727 3155.3686 L 4189.3955 3155.5277 L 4189.0773 3155.8459 L 4188.9182 3156.164 L 4188.7591 3156.6413 L 4188.7591 3157.4368 L 4188.9182 3157.914 L 4189.0773 3158.2322 L 4189.3955 3158.5504 L 4189.8727 3158.7095 L 4190.9864 3158.7095" fill="none"  stroke-width="0.6"  /></g><g c_partid="part_pcbtext" c_etype="pinpart" c_origin="4176.5,3149" c_rotation="0" c_mirror="1" id="gge4211" locked="0" layerid="4" c_shapetype="group" ><path c_fontsize="3.5" c_fontfamily="" c_text="IO0" d="M 4176.5 3145.469 L 4176.5 3148.8099 M 4174.4955 3145.469 L 4174.8136 3145.6281 L 4175.1318 3145.9463 L 4175.2909 3146.2644 L 4175.45 3146.7417 L 4175.45 3147.5372 L 4175.2909 3148.0144 L 4175.1318 3148.3326 L 4174.8136 3148.6508 L 4174.4955 3148.8099 L 4173.8591 3148.8099 L 4173.5409 3148.6508 L 4173.2227 3148.3326 L 4173.0636 3148.0144 L 4172.9045 3147.5372 L 4172.9045 3146.7417 L 4173.0636 3146.2644 L 4173.2227 3145.9463 L 4173.5409 3145.6281 L 4173.8591 3145.469 L 4174.4955 3145.469 M 4170.9 3145.469 L 4171.3773 3145.6281 L 4171.6955 3146.1053 L 4171.8545 3146.9008 L 4171.8545 3147.3781 L 4171.6955 3148.1735 L 4171.3773 3148.6508 L 4170.9 3148.8099 L 4170.5818 3148.8099 L 4170.1045 3148.6508 L 4169.7864 3148.1735 L 4169.6273 3147.3781 L 4169.6273 3146.9008 L 4169.7864 3146.1053 L 4170.1045 3145.6281 L 4170.5818 3145.469 L 4170.9 3145.469" fill="none"  stroke-width="0.6"  /></g><g c_partid="part_pcbtext" c_etype="pinpart" c_origin="4185.5,3149" c_rotation="0" c_mirror="1" id="gge4212" locked="0" layerid="4" c_shapetype="group" ><path c_fontsize="3.5" c_fontfamily="" c_text="EN" d="M 4185.5 3145.4686 L 4185.5 3148.8095 M 4185.5 3145.4686 L 4183.4318 3145.4686 M 4185.5 3147.0595 L 4184.2273 3147.0595 M 4185.5 3148.8095 L 4183.4318 3148.8095 M 4182.3818 3145.4686 L 4182.3818 3148.8095 M 4182.3818 3145.4686 L 4180.1545 3148.8095 M 4180.1545 3145.4686 L 4180.1545 3148.8095" fill="none"  stroke-width="0.6"  /></g><g c_partid="part_pcbtext" c_etype="pinpart" c_origin="4177.5,3159" c_rotation="0" c_mirror="1" id="gge4213" locked="0" layerid="4" c_shapetype="group" ><path c_fontsize="3.5" c_fontfamily="" c_text="GND" d="M 4175.1136 3156.264 L 4175.2727 3155.9459 L 4175.5909 3155.6277 L 4175.9091 3155.4686 L 4176.5455 3155.4686 L 4176.8636 3155.6277 L 4177.1818 3155.9459 L 4177.3409 3156.264 L 4177.5 3156.7413 L 4177.5 3157.5368 L 4177.3409 3158.014 L 4177.1818 3158.3322 L 4176.8636 3158.6504 L 4176.5455 3158.8095 L 4175.9091 3158.8095 L 4175.5909 3158.6504 L 4175.2727 3158.3322 L 4175.1136 3158.014 L 4175.1136 3157.5368 M 4175.9091 3157.5368 L 4175.1136 3157.5368 M 4174.0636 3155.4686 L 4174.0636 3158.8095 M 4174.0636 3155.4686 L 4171.8364 3158.8095 M 4171.8364 3155.4686 L 4171.8364 3158.8095 M 4170.7864 3155.4686 L 4170.7864 3158.8095 M 4170.7864 3155.4686 L 4169.6727 3155.4686 L 4169.1955 3155.6277 L 4168.8773 3155.9459 L 4168.7182 3156.264 L 4168.5591 3156.7413 L 4168.5591 3157.5368 L 4168.7182 3158.014 L 4168.8773 3158.3322 L 4169.1955 3158.6504 L 4169.6727 3158.8095 L 4170.7864 3158.8095" fill="none"  stroke-width="0.6"  /></g><g c_partid="part_pcbtext" c_etype="pinpart" c_origin="4188,3159" c_rotation="0" c_mirror="1" id="gge4214" locked="0" layerid="4" c_shapetype="group" ><path c_fontsize="3.5" c_fontfamily="" c_text="GND" d="M 4185.6136 3156.2644 L 4185.7727 3155.9463 L 4186.0909 3155.6281 L 4186.4091 3155.469 L 4187.0455 3155.469 L 4187.3636 3155.6281 L 4187.6818 3155.9463 L 4187.8409 3156.2644 L 4188 3156.7417 L 4188 3157.5372 L 4187.8409 3158.0144 L 4187.6818 3158.3326 L 4187.3636 3158.6508 L 4187.0455 3158.8099 L 4186.4091 3158.8099 L 4186.0909 3158.6508 L 4185.7727 3158.3326 L 4185.6136 3158.0144 L 4185.6136 3157.5372 M 4186.4091 3157.5372 L 4185.6136 3157.5372 M 4184.5636 3155.469 L 4184.5636 3158.8099 M 4184.5636 3155.469 L 4182.3364 3158.8099 M 4182.3364 3155.469 L 4182.3364 3158.8099 M 4181.2864 3155.469 L 4181.2864 3158.8099 M 4181.2864 3155.469 L 4180.1727 3155.469 L 4179.6955 3155.6281 L 4179.3773 3155.9463 L 4179.2182 3156.2644 L 4179.0591 3156.7417 L 4179.0591 3157.5372 L 4179.2182 3158.0144 L 4179.3773 3158.3326 L 4179.6955 3158.6508 L 4180.1727 3158.8099 L 4181.2864 3158.8099" fill="none"  stroke-width="0.6"  /></g></g><g transform="matrix(-1, 0, 0, 1, 8261.5, 0)"><g c_partid="part_pad" c_etype="pinpart" c_origin="4203.5,3170" layerid="11" number="1" net="RXD" plated ="Y"  id="gge463" locked="0" c_rotation="180" c_width="6.6929" c_height="6.6929" title="RXD" c_shape="ELLIPSE" pasteexpansion="0" solderexpansion="0.4"><ellipse c_etype="pad_shell" cx="4203.5" cy="3170" rx="3.34645" ry="3.34645" layerid="11" stroke-width="0"/><circle c_etype="pad_hole" cx="4203.5" cy="3170" r="2.1654" layerid="11" stroke-width="0"/></g><g c_partid="part_pad" c_etype="pinpart" c_origin="4203.5,3180" layerid="11" number="2" net="TXD" plated ="Y"  id="gge468" locked="0" c_rotation="180" c_width="6.6929" c_height="6.6929" title="TXD" c_shape="ELLIPSE" pasteexpansion="0" solderexpansion="0.4"><ellipse c_etype="pad_shell" cx="4203.5" cy="3180" rx="3.34645" ry="3.34645" layerid="11" stroke-width="0"/><circle c_etype="pad_hole" cx="4203.5" cy="3180" r="2.1654" layerid="11" stroke-width="0"/></g><g c_partid="part_pad" c_etype="pinpart" c_origin="4193.5,3170" layerid="11" number="3" net="3.3V" plated ="Y"  id="gge473" locked="0" c_rotation="180" c_width="6.6929" c_height="6.6929" title="3.3V" c_shape="ELLIPSE" pasteexpansion="0" solderexpansion="0.4"><ellipse c_etype="pad_shell" cx="4193.5" cy="3170" rx="3.34645" ry="3.34645" layerid="11" stroke-width="0"/><circle c_etype="pad_hole" cx="4193.5" cy="3170" r="2.1654" layerid="11" stroke-width="0"/></g><g c_partid="part_pad" c_etype="pinpart" c_origin="4193.5,3180" layerid="11" number="4" net="GND" plated ="Y"  id="gge478" locked="0" c_rotation="180" c_width="6.6929" c_height="6.6929" title="GND" c_shape="ELLIPSE" pasteexpansion="0" solderexpansion="0.4"><ellipse c_etype="pad_shell" cx="4193.5" cy="3180" rx="3.34645" ry="3.34645" layerid="11" stroke-width="0"/><circle c_etype="pad_hole" cx="4193.5" cy="3180" r="2.1654" layerid="11" stroke-width="0"/></g><g c_partid="part_pad" c_etype="pinpart" c_origin="4183.5,3170" layerid="11" number="5" net="RST" plated ="Y"  id="gge483" locked="0" c_rotation="180" c_width="6.6929" c_height="6.6929" title="RST" c_shape="ELLIPSE" pasteexpansion="0" solderexpansion="0.4"><ellipse c_etype="pad_shell" cx="4183.5" cy="3170" rx="3.34645" ry="3.34645" layerid="11" stroke-width="0"/><circle c_etype="pad_hole" cx="4183.5" cy="3170" r="2.1654" layerid="11" stroke-width="0"/></g><g c_partid="part_pad" c_etype="pinpart" c_origin="4183.5,3180" layerid="11" number="6" net="GND" plated ="Y"  id="gge488" locked="0" c_rotation="180" c_width="6.6929" c_height="6.6929" title="GND" c_shape="ELLIPSE" pasteexpansion="0" solderexpansion="0.4"><ellipse c_etype="pad_shell" cx="4183.5" cy="3180" rx="3.34645" ry="3.34645" layerid="11" stroke-width="0"/><circle c_etype="pad_hole" cx="4183.5" cy="3180" r="2.1654" layerid="11" stroke-width="0"/></g><g c_partid="part_pad" c_etype="pinpart" c_origin="4173.5,3170" layerid="11" number="7" net="GPIO0" plated ="Y"  id="gge493" locked="0" c_rotation="180" c_width="6.6929" c_height="6.6929" title="GPIO0" c_shape="ELLIPSE" pasteexpansion="0" solderexpansion="0.4"><ellipse c_etype="pad_shell" cx="4173.5" cy="3170" rx="3.34645" ry="3.34645" layerid="11" stroke-width="0"/><circle c_etype="pad_hole" cx="4173.5" cy="3170" r="2.1654" layerid="11" stroke-width="0"/></g><g c_partid="part_pad" c_etype="pinpart" c_origin="4173.5,3180" layerid="11" number="8" net="GND" plated ="Y"  id="gge498" locked="0" c_rotation="180" c_width="6.6929" c_height="6.6929" title="GND" c_shape="ELLIPSE" pasteexpansion="0" solderexpansion="0.4"><ellipse c_etype="pad_shell" cx="4173.5" cy="3180" rx="3.34645" ry="3.34645" layerid="11" stroke-width="0"/><circle c_etype="pad_hole" cx="4173.5" cy="3180" r="2.1654" layerid="11" stroke-width="0"/></g><g c_partid="part_pad" c_etype="pinpart" c_origin="4110.1,3176" layerid="11" number="1" net="GND" plated ="Y"  id="gge833" locked="0" c_rotation="0" c_width="4.7244" c_height="5.9055" title="GND" c_shape="OVAL" pasteexpansion="0" solderexpansion="0.4"><polyline  c_etype="pad_shell" points="4110.1 3175.4095 4110.1 3176.5906" layerid="11" stroke-width="4.7244" /><circle c_etype="pad_hole" cx="4110.1" cy="3176" r="1.5748" layerid="11" stroke-width="0"/></g><g c_partid="part_pad" c_etype="pinpart" c_origin="4116,3176" layerid="11" number="2" net="DS18" plated ="Y"  id="gge838" locked="0" c_rotation="0" c_width="4.7244" c_height="5.9055" title="DS18" c_shape="OVAL" pasteexpansion="0" solderexpansion="0.4"><polyline  c_etype="pad_shell" points="4116 3175.4095 4116 3176.5906" layerid="11" stroke-width="4.7244" /><circle c_etype="pad_hole" cx="4116" cy="3176" r="1.5748" layerid="11" stroke-width="0"/></g><g c_partid="part_pad" c_etype="pinpart" c_origin="4121.9,3176" layerid="11" number="3" net="3.3V" plated ="Y"  id="gge843" locked="0" c_rotation="0" c_width="4.7244" c_height="5.9055" title="3.3V" c_shape="OVAL" pasteexpansion="0" solderexpansion="0.4"><polyline  c_etype="pad_shell" points="4121.9 3175.4095 4121.9 3176.5906" layerid="11" stroke-width="4.7244" /><circle c_etype="pad_hole" cx="4121.9" cy="3176" r="1.5748" layerid="11" stroke-width="0"/></g><g c_partid="part_pad" c_etype="pinpart" c_origin="4071.425,3171.5" layerid="11" number="1" net="VBATT" plated ="Y"  id="gge870" locked="0" c_rotation="180" c_width="7.0866" c_height="7.0866" title="VBATT" c_shape="RECT" pasteexpansion="0" solderexpansion="0.4"><polygon  c_etype="pad_shell" points="4074.9683 3175.0433 4067.8817 3175.0433 4067.8817 3167.9567 4074.9683 3167.9567" layerid="11" stroke-width="0" /><circle c_etype="pad_hole" cx="4071.425" cy="3171.5" r="2.3622" layerid="11" stroke-width="0"/></g><g c_partid="part_pad" c_etype="pinpart" c_origin="4061.575,3171.5" layerid="11" number="2" net="GND" plated ="Y"  id="gge875" locked="0" c_rotation="180" c_width="7.0866" c_height="7.0866" title="GND" c_shape="ELLIPSE" pasteexpansion="0" solderexpansion="0.4"><ellipse c_etype="pad_shell" cx="4061.575" cy="3171.5" rx="3.5433" ry="3.5433" layerid="11" stroke-width="0"/><circle c_etype="pad_hole" cx="4061.575" cy="3171.5" r="2.3622" layerid="11" stroke-width="0"/></g><g c_partid="part_pad" c_etype="pinpart" c_origin="4137.642,3176" layerid="11" number="1" net="TXC" plated ="Y"  id="gge2538" locked="0" c_rotation="180" c_width="4.7244" c_height="5.9055" title="TXC" c_shape="OVAL" pasteexpansion="0" solderexpansion="0.4"><polyline  c_etype="pad_shell" points="4137.642 3176.5906 4137.642 3175.4095" layerid="11" stroke-width="4.7244" /><circle c_etype="pad_hole" cx="4137.642" cy="3176" r="1.5748" layerid="11" stroke-width="0"/></g><g c_partid="part_pad" c_etype="pinpart" c_origin="4143.547,3176" layerid="11" number="2" net="RXC" plated ="Y"  id="gge2543" locked="0" c_rotation="180" c_width="4.7244" c_height="5.9055" title="RXC" c_shape="OVAL" pasteexpansion="0" solderexpansion="0.4"><polyline  c_etype="pad_shell" points="4143.547 3176.5906 4143.547 3175.4095" layerid="11" stroke-width="4.7244" /><circle c_etype="pad_hole" cx="4143.547" cy="3176" r="1.5748" layerid="11" stroke-width="0"/></g><g c_partid="part_pad" c_etype="pinpart" c_origin="4149.453,3176" layerid="11" number="3" net="TXL" plated ="Y"  id="gge2548" locked="0" c_rotation="180" c_width="4.7244" c_height="5.9055" title="TXL" c_shape="OVAL" pasteexpansion="0" solderexpansion="0.4"><polyline  c_etype="pad_shell" points="4149.453 3176.5906 4149.453 3175.4095" layerid="11" stroke-width="4.7244" /><circle c_etype="pad_hole" cx="4149.453" cy="3176" r="1.5748" layerid="11" stroke-width="0"/></g><g c_partid="part_pad" c_etype="pinpart" c_origin="4155.358,3176" layerid="11" number="4" net="RXL" plated ="Y"  id="gge2553" locked="0" c_rotation="180" c_width="4.7244" c_height="5.9055" title="RXL" c_shape="OVAL" pasteexpansion="0" solderexpansion="0.4"><polyline  c_etype="pad_shell" points="4155.358 3176.5906 4155.358 3175.4095" layerid="11" stroke-width="4.7244" /><circle c_etype="pad_hole" cx="4155.358" cy="3176" r="1.5748" layerid="11" stroke-width="0"/></g><g c_partid="part_via" c_etype="pinpart" c_shapetype="group" net="SCL" c_origin="4172.5,3122.5" layerid="11" id="gge3111" locked="0" solderexpansion=""><circle cx="4172.5" cy="3122.5" r="0.8858" stroke-width="0" c_etype="pad_shell"/><circle cx="4172.5" cy="3122.5" r="0.3937"  stroke-width="0" c_etype="pad_hole"/></g><g c_partid="part_via" c_etype="pinpart" c_shapetype="group" net="SDA" c_origin="4170.5,3124.5" layerid="11" id="gge3105" locked="0" solderexpansion=""><circle cx="4170.5" cy="3124.5" r="0.8858" stroke-width="0" c_etype="pad_shell"/><circle cx="4170.5" cy="3124.5" r="0.3937"  stroke-width="0" c_etype="pad_hole"/></g><g c_partid="part_via" c_etype="pinpart" c_shapetype="group" net="3.3V" c_origin="4203.5,3152" layerid="11" id="gge3096" locked="0" solderexpansion=""><circle cx="4203.5" cy="3152" r="1.2" stroke-width="0" c_etype="pad_shell"/><circle cx="4203.5" cy="3152" r="0.6"  stroke-width="0" c_etype="pad_hole"/></g><g c_partid="part_via" c_etype="pinpart" c_shapetype="group" net="3.3V" c_origin="4203.5,3124" layerid="11" id="gge3090" locked="0" solderexpansion=""><circle cx="4203.5" cy="3124" r="1.2" stroke-width="0" c_etype="pad_shell"/><circle cx="4203.5" cy="3124" r="0.6"  stroke-width="0" c_etype="pad_hole"/></g><g c_partid="part_via" c_etype="pinpart" c_shapetype="group" net="3.3V" c_origin="4194.5,3116.5" layerid="11" id="gge3084" locked="0" solderexpansion=""><circle cx="4194.5" cy="3116.5" r="1.2" stroke-width="0" c_etype="pad_shell"/><circle cx="4194.5" cy="3116.5" r="0.6"  stroke-width="0" c_etype="pad_hole"/></g><g c_partid="part_via" c_etype="pinpart" c_shapetype="group" net="3.3V" c_origin="4132.5,3161.5" layerid="11" id="gge3077" locked="0" solderexpansion=""><circle cx="4132.5" cy="3161.5" r="1.5748" stroke-width="0" c_etype="pad_shell"/><circle cx="4132.5" cy="3161.5" r="0.7874"  stroke-width="0" c_etype="pad_hole"/></g><g c_partid="part_via" c_etype="pinpart" c_shapetype="group" net="3.3V" c_origin="4167,3136" layerid="11" id="gge3067" locked="0" solderexpansion=""><circle cx="4167" cy="3136" r="1.2" stroke-width="0" c_etype="pad_shell"/><circle cx="4167" cy="3136" r="0.6"  stroke-width="0" c_etype="pad_hole"/></g><g c_partid="part_via" c_etype="pinpart" c_shapetype="group" net="R1_2" c_origin="4100.5,3141" layerid="11" id="gge3056" locked="0" solderexpansion=""><circle cx="4100.5" cy="3141" r="1.2" stroke-width="0" c_etype="pad_shell"/><circle cx="4100.5" cy="3141" r="0.6"  stroke-width="0" c_etype="pad_hole"/></g><g c_partid="part_via" c_etype="pinpart" c_shapetype="group" net="5V" c_origin="4104,3165.5" layerid="11" id="gge3041" locked="0" solderexpansion=""><circle cx="4104" cy="3165.5" r="1.2" stroke-width="0" c_etype="pad_shell"/><circle cx="4104" cy="3165.5" r="0.6"  stroke-width="0" c_etype="pad_hole"/></g><g c_partid="part_via" c_etype="pinpart" c_shapetype="group" net="5V" c_origin="4164,3165.5" layerid="11" id="gge3037" locked="0" solderexpansion=""><circle cx="4164" cy="3165.5" r="1.2" stroke-width="0" c_etype="pad_shell"/><circle cx="4164" cy="3165.5" r="0.6"  stroke-width="0" c_etype="pad_hole"/></g><g c_partid="part_via" c_etype="pinpart" c_shapetype="group" net="GND" c_origin="4070.5,3137" layerid="11" id="gge2991" locked="0" solderexpansion=""><circle cx="4070.5" cy="3137" r="1.2" stroke-width="0" c_etype="pad_shell"/><circle cx="4070.5" cy="3137" r="0.6"  stroke-width="0" c_etype="pad_hole"/></g><g c_partid="part_via" c_etype="pinpart" c_shapetype="group" net="DS18" c_origin="4173,3164.8" layerid="11" id="gge2799" locked="0" solderexpansion=""><circle cx="4173" cy="3164.8" r="0.8858" stroke-width="0" c_etype="pad_shell"/><circle cx="4173" cy="3164.8" r="0.3937"  stroke-width="0" c_etype="pad_hole"/></g><g c_partid="part_via" c_etype="pinpart" c_shapetype="group" net="SDA" c_origin="4171,3141.5" layerid="11" id="gge2820" locked="0" solderexpansion=""><circle cx="4171" cy="3141.5" r="0.8858" stroke-width="0" c_etype="pad_shell"/><circle cx="4171" cy="3141.5" r="0.3937"  stroke-width="0" c_etype="pad_hole"/></g><g c_partid="part_via" c_etype="pinpart" c_shapetype="group" net="SCL" c_origin="4172,3144.5" layerid="11" id="gge2826" locked="0" solderexpansion=""><circle cx="4172" cy="3144.5" r="0.8858" stroke-width="0" c_etype="pad_shell"/><circle cx="4172" cy="3144.5" r="0.3937"  stroke-width="0" c_etype="pad_hole"/></g><g c_partid="part_via" c_etype="pinpart" c_shapetype="group" net="R1_2" c_origin="4060,3139" layerid="11" id="gge2878" locked="0" solderexpansion=""><circle cx="4060" cy="3139" r="0.8858" stroke-width="0" c_etype="pad_shell"/><circle cx="4060" cy="3139" r="0.3937"  stroke-width="0" c_etype="pad_hole"/></g><g c_partid="part_via" c_etype="pinpart" c_shapetype="group" net="3.3V" c_origin="4173,3116.5" layerid="11" id="gge3210" locked="0" solderexpansion=""><circle cx="4173" cy="3116.5" r="1.2" stroke-width="0" c_etype="pad_shell"/><circle cx="4173" cy="3116.5" r="0.6"  stroke-width="0" c_etype="pad_hole"/></g><g c_partid="part_via" c_etype="pinpart" c_shapetype="group" net="GND" c_origin="4163,3118" layerid="11" id="gge3219" locked="0" solderexpansion=""><circle cx="4163" cy="3118" r="1.2" stroke-width="0" c_etype="pad_shell"/><circle cx="4163" cy="3118" r="0.6"  stroke-width="0" c_etype="pad_hole"/></g><g c_partid="part_via" c_etype="pinpart" c_shapetype="group" net="GND" c_origin="4183,3131.5" layerid="11" id="gge3230" locked="0" solderexpansion=""><circle cx="4183" cy="3131.5" r="0.8858" stroke-width="0" c_etype="pad_shell"/><circle cx="4183" cy="3131.5" r="0.3937"  stroke-width="0" c_etype="pad_hole"/></g><g c_partid="part_via" c_etype="pinpart" c_shapetype="group" net="GND" c_origin="4189.5,3131.5" layerid="11" id="gge3237" locked="0" solderexpansion=""><circle cx="4189.5" cy="3131.5" r="0.8858" stroke-width="0" c_etype="pad_shell"/><circle cx="4189.5" cy="3131.5" r="0.3937"  stroke-width="0" c_etype="pad_hole"/></g><g c_partid="part_via" c_etype="pinpart" c_shapetype="group" net="GND" c_origin="4196,3131.5" layerid="11" id="gge3242" locked="0" solderexpansion=""><circle cx="4196" cy="3131.5" r="0.8858" stroke-width="0" c_etype="pad_shell"/><circle cx="4196" cy="3131.5" r="0.3937"  stroke-width="0" c_etype="pad_hole"/></g><g c_partid="part_via" c_etype="pinpart" c_shapetype="group" net="GND" c_origin="4183,3138" layerid="11" id="gge3263" locked="0" solderexpansion=""><circle cx="4183" cy="3138" r="0.8858" stroke-width="0" c_etype="pad_shell"/><circle cx="4183" cy="3138" r="0.3937"  stroke-width="0" c_etype="pad_hole"/></g><g c_partid="part_via" c_etype="pinpart" c_shapetype="group" net="GND" c_origin="4189.5,3138" layerid="11" id="gge3264" locked="0" solderexpansion=""><circle cx="4189.5" cy="3138" r="0.8858" stroke-width="0" c_etype="pad_shell"/><circle cx="4189.5" cy="3138" r="0.3937"  stroke-width="0" c_etype="pad_hole"/></g><g c_partid="part_via" c_etype="pinpart" c_shapetype="group" net="GND" c_origin="4196,3138" layerid="11" id="gge3265" locked="0" solderexpansion=""><circle cx="4196" cy="3138" r="0.8858" stroke-width="0" c_etype="pad_shell"/><circle cx="4196" cy="3138" r="0.3937"  stroke-width="0" c_etype="pad_hole"/></g><g c_partid="part_via" c_etype="pinpart" c_shapetype="group" net="GND" c_origin="4183,3144.5" layerid="11" id="gge3278" locked="0" solderexpansion=""><circle cx="4183" cy="3144.5" r="0.8858" stroke-width="0" c_etype="pad_shell"/><circle cx="4183" cy="3144.5" r="0.3937"  stroke-width="0" c_etype="pad_hole"/></g><g c_partid="part_via" c_etype="pinpart" c_shapetype="group" net="GND" c_origin="4189.5,3144.5" layerid="11" id="gge3279" locked="0" solderexpansion=""><circle cx="4189.5" cy="3144.5" r="0.8858" stroke-width="0" c_etype="pad_shell"/><circle cx="4189.5" cy="3144.5" r="0.3937"  stroke-width="0" c_etype="pad_hole"/></g><g c_partid="part_via" c_etype="pinpart" c_shapetype="group" net="GND" c_origin="4196,3144.5" layerid="11" id="gge3280" locked="0" solderexpansion=""><circle cx="4196" cy="3144.5" r="0.8858" stroke-width="0" c_etype="pad_shell"/><circle cx="4196" cy="3144.5" r="0.3937"  stroke-width="0" c_etype="pad_hole"/></g><g c_partid="part_via" c_etype="pinpart" c_shapetype="group" net="GND" c_origin="4113.24,3154.65" layerid="11" id="gge3290" locked="0" solderexpansion=""><circle cx="4113.24" cy="3154.65" r="0.8858" stroke-width="0" c_etype="pad_shell"/><circle cx="4113.24" cy="3154.65" r="0.3937"  stroke-width="0" c_etype="pad_hole"/></g><g c_partid="part_via" c_etype="pinpart" c_shapetype="group" net="GND" c_origin="4113.24,3161.65" layerid="11" id="gge3295" locked="0" solderexpansion=""><circle cx="4113.24" cy="3161.65" r="0.8858" stroke-width="0" c_etype="pad_shell"/><circle cx="4113.24" cy="3161.65" r="0.3937"  stroke-width="0" c_etype="pad_hole"/></g><g c_partid="part_via" c_etype="pinpart" c_shapetype="group" net="GND" c_origin="4111.24,3158.15" layerid="11" id="gge3300" locked="0" solderexpansion=""><circle cx="4111.24" cy="3158.15" r="0.8858" stroke-width="0" c_etype="pad_shell"/><circle cx="4111.24" cy="3158.15" r="0.3937"  stroke-width="0" c_etype="pad_hole"/></g><g c_partid="part_via" c_etype="pinpart" c_shapetype="group" net="GND" c_origin="4115.24,3158.15" layerid="11" id="gge3305" locked="0" solderexpansion=""><circle cx="4115.24" cy="3158.15" r="0.8858" stroke-width="0" c_etype="pad_shell"/><circle cx="4115.24" cy="3158.15" r="0.3937"  stroke-width="0" c_etype="pad_hole"/></g><g c_partid="part_via" c_etype="pinpart" c_shapetype="group" net="RST" c_origin="4182.5,3120" layerid="11" id="gge3312" locked="0" solderexpansion=""><circle cx="4182.5" cy="3120" r="0.8858" stroke-width="0" c_etype="pad_shell"/><circle cx="4182.5" cy="3120" r="0.3937"  stroke-width="0" c_etype="pad_hole"/></g><g c_partid="part_via" c_etype="pinpart" c_shapetype="group" net="RST" c_origin="4175.5,3151.5" layerid="11" id="gge3347" locked="0" solderexpansion=""><circle cx="4175.5" cy="3151.5" r="0.8858" stroke-width="0" c_etype="pad_shell"/><circle cx="4175.5" cy="3151.5" r="0.3937"  stroke-width="0" c_etype="pad_hole"/></g><g c_partid="part_via" c_etype="pinpart" c_shapetype="group" net="GND" c_origin="4054.5,3107.5" layerid="11" id="gge3415" locked="0" solderexpansion=""><circle cx="4054.5" cy="3107.5" r="1.2" stroke-width="0" c_etype="pad_shell"/><circle cx="4054.5" cy="3107.5" r="0.6"  stroke-width="0" c_etype="pad_hole"/></g><g c_partid="part_via" c_etype="pinpart" c_shapetype="group" net="GND" c_origin="4054.5,3103.5" layerid="11" id="gge3420" locked="0" solderexpansion=""><circle cx="4054.5" cy="3103.5" r="1.2" stroke-width="0" c_etype="pad_shell"/><circle cx="4054.5" cy="3103.5" r="0.6"  stroke-width="0" c_etype="pad_hole"/></g><g c_partid="part_via" c_etype="pinpart" c_shapetype="group" net="GND" c_origin="4054.5,3111.5" layerid="11" id="gge3425" locked="0" solderexpansion=""><circle cx="4054.5" cy="3111.5" r="1.2" stroke-width="0" c_etype="pad_shell"/><circle cx="4054.5" cy="3111.5" r="0.6"  stroke-width="0" c_etype="pad_hole"/></g><g c_partid="part_via" c_etype="pinpart" c_shapetype="group" net="GND" c_origin="4180,3101.5" layerid="11" id="gge3445" locked="0" solderexpansion=""><circle cx="4180" cy="3101.5" r="1.2" stroke-width="0" c_etype="pad_shell"/><circle cx="4180" cy="3101.5" r="0.6"  stroke-width="0" c_etype="pad_hole"/></g><g c_partid="part_via" c_etype="pinpart" c_shapetype="group" net="GND" c_origin="4184,3101.5" layerid="11" id="gge3450" locked="0" solderexpansion=""><circle cx="4184" cy="3101.5" r="1.2" stroke-width="0" c_etype="pad_shell"/><circle cx="4184" cy="3101.5" r="0.6"  stroke-width="0" c_etype="pad_hole"/></g><g c_partid="part_via" c_etype="pinpart" c_shapetype="group" net="GND" c_origin="4172,3101.5" layerid="11" id="gge3455" locked="0" solderexpansion=""><circle cx="4172" cy="3101.5" r="1.2" stroke-width="0" c_etype="pad_shell"/><circle cx="4172" cy="3101.5" r="0.6"  stroke-width="0" c_etype="pad_hole"/></g><g c_partid="part_via" c_etype="pinpart" c_shapetype="group" net="GND" c_origin="4205,3116.5" layerid="11" id="gge3460" locked="0" solderexpansion=""><circle cx="4205" cy="3116.5" r="1.2" stroke-width="0" c_etype="pad_shell"/><circle cx="4205" cy="3116.5" r="0.6"  stroke-width="0" c_etype="pad_hole"/></g><g c_partid="part_via" c_etype="pinpart" c_shapetype="group" net="GND" c_origin="4207.5,3119" layerid="11" id="gge3465" locked="0" solderexpansion=""><circle cx="4207.5" cy="3119" r="1.2" stroke-width="0" c_etype="pad_shell"/><circle cx="4207.5" cy="3119" r="0.6"  stroke-width="0" c_etype="pad_hole"/></g><g c_partid="part_via" c_etype="pinpart" c_shapetype="group" net="GND" c_origin="4195.5,3157.5" layerid="11" id="gge3470" locked="0" solderexpansion=""><circle cx="4195.5" cy="3157.5" r="1.2" stroke-width="0" c_etype="pad_shell"/><circle cx="4195.5" cy="3157.5" r="0.6"  stroke-width="0" c_etype="pad_hole"/></g><g c_partid="part_via" c_etype="pinpart" c_shapetype="group" net="GND" c_origin="4188,3157.5" layerid="11" id="gge3475" locked="0" solderexpansion=""><circle cx="4188" cy="3157.5" r="1.2" stroke-width="0" c_etype="pad_shell"/><circle cx="4188" cy="3157.5" r="0.6"  stroke-width="0" c_etype="pad_hole"/></g><g c_partid="part_via" c_etype="pinpart" c_shapetype="group" net="GND" c_origin="4192,3157.5" layerid="11" id="gge3480" locked="0" solderexpansion=""><circle cx="4192" cy="3157.5" r="1.2" stroke-width="0" c_etype="pad_shell"/><circle cx="4192" cy="3157.5" r="0.6"  stroke-width="0" c_etype="pad_hole"/></g><g c_partid="part_via" c_etype="pinpart" c_shapetype="group" net="GND" c_origin="4127.5,3147.5" layerid="11" id="gge3485" locked="0" solderexpansion=""><circle cx="4127.5" cy="3147.5" r="1.2" stroke-width="0" c_etype="pad_shell"/><circle cx="4127.5" cy="3147.5" r="0.6"  stroke-width="0" c_etype="pad_hole"/></g><g c_partid="part_via" c_etype="pinpart" c_shapetype="group" net="GND" c_origin="4133,3150.5" layerid="11" id="gge3490" locked="0" solderexpansion=""><circle cx="4133" cy="3150.5" r="1.2" stroke-width="0" c_etype="pad_shell"/><circle cx="4133" cy="3150.5" r="0.6"  stroke-width="0" c_etype="pad_hole"/></g><g c_partid="part_via" c_etype="pinpart" c_shapetype="group" net="GND" c_origin="4088.5,3114.5" layerid="11" id="gge3510" locked="0" solderexpansion=""><circle cx="4088.5" cy="3114.5" r="1.2" stroke-width="0" c_etype="pad_shell"/><circle cx="4088.5" cy="3114.5" r="0.6"  stroke-width="0" c_etype="pad_hole"/></g><g c_partid="part_via" c_etype="pinpart" c_shapetype="group" net="GND" c_origin="4088.5,3118.5" layerid="11" id="gge3515" locked="0" solderexpansion=""><circle cx="4088.5" cy="3118.5" r="1.2" stroke-width="0" c_etype="pad_shell"/><circle cx="4088.5" cy="3118.5" r="0.6"  stroke-width="0" c_etype="pad_hole"/></g><g c_partid="part_via" c_etype="pinpart" c_shapetype="group" net="GND" c_origin="4088.5,3110.5" layerid="11" id="gge3520" locked="0" solderexpansion=""><circle cx="4088.5" cy="3110.5" r="1.2" stroke-width="0" c_etype="pad_shell"/><circle cx="4088.5" cy="3110.5" r="0.6"  stroke-width="0" c_etype="pad_hole"/></g><g c_partid="part_via" c_etype="pinpart" c_shapetype="group" net="GND" c_origin="4088.5,3122.5" layerid="11" id="gge3534" locked="0" solderexpansion=""><circle cx="4088.5" cy="3122.5" r="1.2" stroke-width="0" c_etype="pad_shell"/><circle cx="4088.5" cy="3122.5" r="0.6"  stroke-width="0" c_etype="pad_hole"/></g><g c_partid="part_via" c_etype="pinpart" c_shapetype="group" net="GND" c_origin="4176,3101.5" layerid="11" id="gge3557" locked="0" solderexpansion=""><circle cx="4176" cy="3101.5" r="1.2" stroke-width="0" c_etype="pad_shell"/><circle cx="4176" cy="3101.5" r="0.6"  stroke-width="0" c_etype="pad_hole"/></g><g c_partid="part_via" c_etype="pinpart" c_shapetype="group" net="GND" c_origin="4162.5,3145.5" layerid="11" id="gge4228" locked="0" solderexpansion=""><circle cx="4162.5" cy="3145.5" r="1.2" stroke-width="0" c_etype="pad_shell"/><circle cx="4162.5" cy="3145.5" r="0.6"  stroke-width="0" c_etype="pad_hole"/></g><g c_partid="part_via" c_etype="pinpart" c_shapetype="group" net="GND" c_origin="4162.5,3150" layerid="11" id="gge4233" locked="0" solderexpansion=""><circle cx="4162.5" cy="3150" r="1.2" stroke-width="0" c_etype="pad_shell"/><circle cx="4162.5" cy="3150" r="0.6"  stroke-width="0" c_etype="pad_hole"/></g><g c_partid="part_via" c_etype="pinpart" c_shapetype="group" net="GND" c_origin="4162.5,3154.5" layerid="11" id="gge4238" locked="0" solderexpansion=""><circle cx="4162.5" cy="3154.5" r="1.2" stroke-width="0" c_etype="pad_shell"/><circle cx="4162.5" cy="3154.5" r="0.6"  stroke-width="0" c_etype="pad_hole"/></g><g c_partid="part_via" c_etype="pinpart" c_shapetype="group" net="GND" c_origin="4087.5,3156.5" layerid="11" id="gge4273" locked="0" solderexpansion=""><circle cx="4087.5" cy="3156.5" r="1.2" stroke-width="0" c_etype="pad_shell"/><circle cx="4087.5" cy="3156.5" r="0.6"  stroke-width="0" c_etype="pad_hole"/></g><g c_partid="part_via" c_etype="pinpart" c_shapetype="group" net="GND" c_origin="4080.5,3162" layerid="11" id="gge4278" locked="0" solderexpansion=""><circle cx="4080.5" cy="3162" r="1.2" stroke-width="0" c_etype="pad_shell"/><circle cx="4080.5" cy="3162" r="0.6"  stroke-width="0" c_etype="pad_hole"/></g></g><g transform="matrix(-1, 0, 0, 1, 8261.5, 0)"><polyline points="4211.4175 3091.5117 4211.4175 3186 4050 3186 4050 3091.5117" stroke-width="1"  stroke-linecap="round" fill="none" layerid="10" net="" id="gge2789" locked="0" /><polyline points="4050 3091.5117 4211.4175 3091.5117" stroke-width="1"  stroke-linecap="round" fill="none" layerid="10" net="" id="gge2790" locked="0" /></g></svg>